<?xml version="1.0" encoding="utf-8"?>
<!-- Generator: Adobe Illustrator 19.2.0, SVG Export Plug-In . SVG Version: 6.00 Build 0)  -->
<svg version="1.1" id="Layer_1" xmlns="http://www.w3.org/2000/svg" xmlns:xlink="http://www.w3.org/1999/xlink" x="0px" y="0px"
	 viewBox="0 0 528 104" style="enable-background:new 0 0 528 104;" xml:space="preserve">
<style type="text/css">
	.st0{fill:#58595B;}
</style>
<g>
	<g>
		<path class="st0" d="M61.7,14v8.6H37.1V90H26.9V22.7H2.2V14H61.7z"/>
		<path class="st0" d="M137.9,52.1c0,5.7-0.9,10.9-2.7,15.7c-1.8,4.8-4.3,8.8-7.6,12.3c-3.3,3.4-7.2,6.1-11.8,8
			c-4.6,1.9-9.7,2.8-15.3,2.8c-5.6,0-10.7-0.9-15.3-2.8c-4.6-1.9-8.5-4.5-11.8-8c-3.3-3.4-5.8-7.5-7.6-12.3C63.9,63,63,57.7,63,52.1
			c0-5.7,0.9-10.9,2.7-15.7c1.8-4.8,4.3-8.9,7.6-12.3c3.3-3.4,7.2-6.1,11.8-8c4.6-1.9,9.7-2.9,15.3-2.9c5.6,0,10.7,1,15.3,2.9
			c4.6,1.9,8.6,4.6,11.8,8c3.3,3.4,5.8,7.5,7.6,12.3C137,41.1,137.9,46.4,137.9,52.1z M127.3,52.1c0-4.7-0.6-8.9-1.9-12.6
			c-1.3-3.7-3.1-6.8-5.4-9.4c-2.3-2.6-5.2-4.5-8.5-5.9c-3.3-1.4-7-2.1-11.1-2.1c-4.1,0-7.8,0.7-11.1,2.1c-3.3,1.4-6.2,3.3-8.5,5.9
			c-2.4,2.6-4.2,5.7-5.4,9.4c-1.3,3.7-1.9,7.9-1.9,12.6c0,4.7,0.6,8.8,1.9,12.5c1.3,3.7,3.1,6.8,5.4,9.4c2.3,2.6,5.2,4.5,8.5,5.9
			c3.3,1.4,7,2,11.1,2c4.1,0,7.8-0.7,11.1-2c3.3-1.4,6.1-3.3,8.5-5.9c2.3-2.6,4.1-5.7,5.4-9.4C126.7,60.9,127.3,56.7,127.3,52.1z"/>
		<path class="st0" d="M163.2,61.6V90H153V14h22.4c4.8,0,9,0.6,12.5,1.7c3.6,1.1,6.5,2.7,8.8,4.7c2.3,2,4.1,4.5,5.2,7.4
			c1.1,2.9,1.7,6.1,1.7,9.7c0,3.5-0.6,6.8-1.9,9.7c-1.2,2.9-3,5.5-5.4,7.6c-2.4,2.1-5.3,3.8-8.9,5c-3.5,1.2-7.6,1.8-12.1,1.8H163.2z
			 M163.2,53.4h12.2c2.9,0,5.5-0.4,7.8-1.2c2.2-0.8,4.1-1.9,5.6-3.3c1.5-1.4,2.7-3.1,3.4-5c0.8-1.9,1.2-4.1,1.2-6.4
			c0-4.8-1.5-8.6-4.5-11.3c-3-2.7-7.5-4.1-13.5-4.1h-12.2V53.4z"/>
		<path class="st0" d="M208.4,15h4.5c1,0,1.7,0.5,2,1.4l18.9,61.7c0.2,0.7,0.4,1.5,0.6,2.3c0.2,0.8,0.3,1.7,0.5,2.5
			c0.2-0.9,0.4-1.7,0.5-2.5c0.2-0.8,0.4-1.6,0.6-2.3l21.2-61.7c0.1-0.4,0.4-0.7,0.7-1c0.4-0.3,0.8-0.4,1.3-0.4h1.5
			c0.5,0,0.9,0.1,1.2,0.4c0.3,0.3,0.6,0.6,0.7,1l21.2,61.7c0.2,0.7,0.5,1.4,0.7,2.2c0.2,0.8,0.4,1.6,0.6,2.5
			c0.2-0.8,0.3-1.7,0.5-2.5c0.1-0.8,0.3-1.5,0.5-2.3L305,16.4c0.1-0.4,0.3-0.7,0.7-1c0.4-0.3,0.8-0.4,1.3-0.4h4.1l-23.6,75h-4.9
			l-22.2-65.1c-0.3-0.8-0.5-1.7-0.7-2.7c-0.2,1-0.5,1.9-0.7,2.7L236.8,90H232L208.4,15z"/>
		<path class="st0" d="M376.2,90h-4.2c-0.5,0-0.9-0.1-1.2-0.4c-0.3-0.3-0.6-0.6-0.7-1l-8.9-21.8h-36.8l-8.8,21.8
			c-0.1,0.4-0.4,0.7-0.7,1c-0.4,0.3-0.8,0.4-1.3,0.4h-4.1l30.7-75h5.4L376.2,90z M326,62.8h33.6l-15.3-37.9c-0.2-0.6-0.5-1.3-0.7-2
			c-0.2-0.8-0.5-1.6-0.7-2.4c-0.2,0.8-0.5,1.7-0.7,2.4c-0.2,0.8-0.5,1.5-0.7,2.1L326,62.8z"/>
		<path class="st0" d="M395.1,56.1V90h-5.4V15h19.1c8.7,0,15.1,1.7,19.4,5c4.3,3.3,6.4,8.2,6.4,14.7c0,2.9-0.5,5.5-1.5,7.8
			c-1,2.4-2.4,4.4-4.3,6.2c-1.9,1.8-4.1,3.3-6.7,4.4c-2.6,1.1-5.6,1.9-8.9,2.3c0.8,0.5,1.6,1.2,2.3,2.1L441.4,90h-4.7
			c-0.6,0-1.1-0.1-1.5-0.3c-0.4-0.2-0.8-0.6-1.2-1.1l-24-30.4c-0.6-0.8-1.2-1.3-1.9-1.6c-0.7-0.3-1.8-0.5-3.2-0.5H395.1z
			 M395.1,52.1h13c3.3,0,6.3-0.4,8.9-1.2c2.6-0.8,4.9-1.9,6.7-3.4c1.8-1.5,3.2-3.3,4.2-5.4c1-2.1,1.4-4.4,1.4-7.1
			c0-5.3-1.7-9.3-5.2-11.9c-3.5-2.6-8.6-3.9-15.3-3.9h-13.7V52.1z"/>
		<path class="st0" d="M500,15v4.5h-39.5v30.3h32.9v4.4h-32.9v31.3H500V90h-45V15H500z"/>
	</g>
	<g>
		<path class="st0" d="M508.2,24.2c0-0.8,0.1-1.6,0.3-2.3c0.2-0.8,0.5-1.5,0.9-2.1c0.4-0.7,0.8-1.3,1.4-1.8c0.5-0.5,1.1-1,1.8-1.4
			c0.7-0.4,1.4-0.7,2.1-0.9c0.7-0.2,1.5-0.3,2.3-0.3c0.8,0,1.6,0.1,2.3,0.3c0.8,0.2,1.5,0.5,2.1,0.9c0.7,0.4,1.2,0.8,1.8,1.4
			c0.5,0.5,1,1.1,1.4,1.8c0.4,0.7,0.7,1.4,0.9,2.1c0.2,0.8,0.3,1.5,0.3,2.3c0,0.8-0.1,1.6-0.3,2.3c-0.2,0.8-0.5,1.5-0.9,2.1
			c-0.4,0.7-0.8,1.2-1.4,1.8c-0.5,0.5-1.1,1-1.8,1.4c-0.7,0.4-1.4,0.7-2.1,0.9c-0.8,0.2-1.5,0.3-2.3,0.3c-0.8,0-1.6-0.1-2.3-0.3
			c-0.7-0.2-1.4-0.5-2.1-0.9c-0.7-0.4-1.2-0.8-1.8-1.4c-0.5-0.5-1-1.1-1.4-1.8c-0.4-0.7-0.7-1.4-0.9-2.1
			C508.3,25.8,508.2,25,508.2,24.2z M509.4,24.2c0,0.7,0.1,1.4,0.3,2.1c0.2,0.7,0.4,1.3,0.8,1.9c0.3,0.6,0.7,1.1,1.2,1.6
			s1,0.9,1.5,1.2c0.6,0.3,1.2,0.6,1.8,0.8c0.7,0.2,1.3,0.3,2,0.3c1.1,0,2.1-0.2,3-0.6c0.9-0.4,1.7-1,2.4-1.6
			c0.7-0.7,1.2-1.5,1.6-2.4c0.4-0.9,0.6-1.9,0.6-3c0-0.7-0.1-1.4-0.3-2.1c-0.2-0.7-0.4-1.3-0.8-1.9c-0.3-0.6-0.7-1.1-1.2-1.6
			c-0.5-0.5-1-0.9-1.5-1.2c-0.6-0.3-1.2-0.6-1.8-0.8c-0.7-0.2-1.3-0.3-2-0.3c-1.1,0-2.1,0.2-3,0.6c-0.9,0.4-1.7,1-2.4,1.7
			c-0.7,0.7-1.2,1.5-1.6,2.5C509.6,22.1,509.4,23.1,509.4,24.2z M515.2,25.3v4.3h-1.9V18.8h3.5c1.4,0,2.4,0.3,3.1,0.8
			c0.7,0.5,1,1.2,1,2.2c0,0.8-0.2,1.4-0.6,1.9c-0.4,0.5-1.1,0.9-1.9,1.1c0.1,0.1,0.3,0.2,0.4,0.3c0.1,0.1,0.2,0.3,0.3,0.4l2.7,4
			h-1.8c-0.3,0-0.5-0.1-0.6-0.3l-2.4-3.6c-0.1-0.1-0.2-0.2-0.3-0.2c-0.1-0.1-0.3-0.1-0.5-0.1H515.2z M515.2,23.9h1.4
			c0.4,0,0.8,0,1.1-0.1c0.3-0.1,0.6-0.2,0.7-0.4c0.2-0.2,0.3-0.4,0.4-0.6s0.1-0.5,0.1-0.8c0-0.3,0-0.6-0.1-0.8s-0.2-0.4-0.4-0.6
			s-0.4-0.3-0.7-0.3c-0.3-0.1-0.6-0.1-1-0.1h-1.6V23.9z"/>
	</g>
</g>
</svg>
