<svg id="Layer_5" data-name="Layer 5" xmlns="http://www.w3.org/2000/svg" viewBox="0 0 210 50"><defs><style>.cls-1{fill:#010101;}.cls-2{fill:#1d1d1b;fill-rule:evenodd;}</style></defs><title>adidas</title><path class="cls-1" d="M45.93,20.28a9.32,9.32,0,1,0-5.34,17,9.42,9.42,0,0,0,5.34-1.6v1.19h4.39v-18H45.93v1.42ZM40.71,33a5.19,5.19,0,0,1-5.17-5.1A5.19,5.19,0,1,1,40.71,33Z"/><path class="cls-1" d="M66.52,20.28a9.1,9.1,0,0,0-5.28-1.6,9.28,9.28,0,1,0,0,18.57,9.53,9.53,0,0,0,5.28-1.6v1.19H71V12.75H66.52v7.54ZM61.35,33a5.2,5.2,0,0,1-5.22-5.1,5.19,5.19,0,0,1,10.38,0A5.19,5.19,0,0,1,61.35,33Z"/><path class="cls-1" d="M132.32,26.22c-2.91-.77-6.65-0.65-6.65-2.5,0.12-1.24,1.31-1.6,3.09-1.6,2.67,0,2.85,1.49,2.9,2.43h4.52c-0.3-3.5-3.15-5.87-7.66-5.87s-7.42,2.55-7.42,5.76a4.85,4.85,0,0,0,2.49,4.33A16.82,16.82,0,0,0,128.29,30c1.9,0.3,3.68.41,3.79,1.84,0,0.89-.94,2.07-3,2.07-3-.06-3.74-1.72-3.74-2.85h-4.69c0.18,3.62,3.15,6.17,8.13,6.17,4.45,0,8.07-1.72,8.07-6.17C136.89,28.65,135.11,26.93,132.32,26.22Z"/><path class="cls-1" d="M94,20.28a9.13,9.13,0,0,0-5.34-1.6,9.28,9.28,0,1,0,0,18.57A9.42,9.42,0,0,0,94,35.66v1.19h4.39V12.75H94v7.54ZM88.83,33a5.18,5.18,0,0,1-5.1-5.1A5.16,5.16,0,1,1,88.83,33Z"/><path class="cls-1" d="M114.52,20.28a9,9,0,0,0-5.28-1.6,9.28,9.28,0,1,0,5.28,17v1.19H119v-18h-4.45v1.42ZM109.41,33a5.19,5.19,0,0,1-5.16-5.1,5.13,5.13,0,1,1,10.26,0A5.14,5.14,0,0,1,109.41,33Z"/><polygon class="cls-1" points="73.17 12.75 73.16 12.75 73.16 17.2 77.61 17.2 77.61 12.75 73.17 12.75"/><rect class="cls-1" x="73.16" y="18.86" width="4.45" height="17.98"/><path class="cls-1" d="M134,12.36A2.3,2.3,0,0,0,134,17,2.3,2.3,0,1,0,134,12.36Zm0,4.3a2,2,0,0,1,0-4A2,2,0,1,1,134,16.66Z"/><path class="cls-1" d="M134.51,14.74a0.62,0.62,0,0,0,.4-0.63,0.75,0.75,0,0,0-.85-0.71H133.2v2.53h0.4v-1h0.53c0.31,0,.38.23,0.38,0.71a0.35,0.35,0,0,0,.09.31H135a1.62,1.62,0,0,1-.09-0.71A0.4,0.4,0,0,0,134.51,14.74ZM134,14.51H133.6V13.8h0.53a0.36,0.36,0,0,1,.38.39A0.46,0.46,0,0,1,134,14.51Z"/><path class="cls-2" d="M178.81,25.8H167.73c3.06-4.3,7.45-6.73,13.14-7.6a25.16,25.16,0,0,1-2.06,7.59m-13.25,0h-8.94c-0.2-5.75,1.39-11.59,4.47-15.1C164.23,14.13,165.85,19.94,165.57,25.81Zm-11.13,0H143.57a24.86,24.86,0,0,1-1.92-7.62C147.24,19.18,151.56,21.48,154.43,25.79ZM176.71,30H145.58a13.52,13.52,0,0,1-1.19-2h33.5A11.16,11.16,0,0,1,176.71,30Zm-3.59,3.92H149a9.34,9.34,0,0,1-2-1.82h28.1A16.25,16.25,0,0,1,173.12,33.95Zm-10.18,1.68h-3.78a13,13,0,0,0,2,2.92A13.88,13.88,0,0,0,162.94,35.63Zm0.79,0-0.41,2.52a22.53,22.53,0,0,0,7.28-2.52h-6.87Zm-5.25,0h-6.89a22,22,0,0,0,7.21,2.69Z"/><path class="cls-2" d="M179.86,17.11a1.78,1.78,0,1,1,1.79-1.78,1.79,1.79,0,0,1-1.79,1.78m0-3.92h0a2.13,2.13,0,1,0,0,4.26h0A2.13,2.13,0,0,0,179.86,13.18Z"/><path class="cls-2" d="M179.86,15.15h-0.45V14.57h0.71a0.26,0.26,0,0,1,.18.09,0.22,0.22,0,0,1,.06.18,0.37,0.37,0,0,1,0,.18,0.33,0.33,0,0,1-.14.09l-0.31,0m0.62,0.52a1.43,1.43,0,0,0-.25-0.2,0.72,0.72,0,0,0,.46-0.22,0.6,0.6,0,0,0,.15-0.42,0.78,0.78,0,0,0-.11-0.37,0.53,0.53,0,0,0-.28-0.21,1.45,1.45,0,0,0-.54-0.07h-1v2.32h0.45v-1h0.1a0.82,0.82,0,0,1,.24,0,0.43,0.43,0,0,1,.11.08l0,0L180.13,16l0.33,0.51H181L180.74,16A2.34,2.34,0,0,0,180.48,15.66Z"/></svg>