<svg id="Layer_6" data-name="Layer 6" xmlns="http://www.w3.org/2000/svg" viewBox="0 0 210 50"><defs><style>.cls-1{fill:#4a3b15;}</style></defs><title>customers</title><path class="cls-1" d="M80.74,33.06c-1.39-.86-3,0.35-3.17.44a4.37,4.37,0,0,1,.06-0.74l-0.1-.07-1.64.64v0.11l0.28,0.27a1.33,1.33,0,0,1,.37,1c0,0.52.05,5.79,0.05,5.79,0,0.33,0,.83-1,0.85v0.26H79.1V41.38c-1.33,0-1.42-.37-1.44-1,0-.12,0-1.67,0-1.86A4.06,4.06,0,0,0,80.69,38,3,3,0,0,0,80.74,33.06Zm-1.66,5a1.4,1.4,0,0,1-1.47-1.58c0-.34,0-2.58,0-2.58a1.94,1.94,0,0,1,2.6.12C81.48,35.35,81.14,38.06,79.08,38.11Z"/><path class="cls-1" d="M46.17,26a2.1,2.1,0,0,1,0,3l-0.69.69a2.08,2.08,0,0,1-2.95,0l-4.71-4.73a2.1,2.1,0,0,1,0-3l0.69-.69a2.08,2.08,0,0,1,2.94,0Z"/><path class="cls-1" d="M50.24,21.88a2.09,2.09,0,0,1,0,3l-0.68.68a2.08,2.08,0,0,1-2.95,0L41.9,20.79a2.1,2.1,0,0,1,0-3l0.69-.68a2.07,2.07,0,0,1,2.94,0Z"/><path class="cls-1" d="M62.47,26a2.1,2.1,0,0,1,0,3l-0.69.68a2.07,2.07,0,0,1-2.94,0L54.13,25a2.11,2.11,0,0,1,0-3l0.69-.68a2.07,2.07,0,0,1,2.94,0Z"/><path class="cls-1" d="M66.54,22a2.09,2.09,0,0,1,0,3l-0.68.69a2.08,2.08,0,0,1-2.94,0L58.2,20.87a2.09,2.09,0,0,1,0-3l0.68-.69a2.08,2.08,0,0,1,2.95,0Z"/><path class="cls-1" d="M49.71,17.43a2.07,2.07,0,0,1-2.95,0l-0.68-.69a2.1,2.1,0,0,1,0-3L50.79,9a2.08,2.08,0,0,1,2.95,0l0.68,0.69a2.1,2.1,0,0,1,0,3Z"/><path class="cls-1" d="M53.79,21.52a2.08,2.08,0,0,1-3,0l-0.68-.69a2.09,2.09,0,0,1,0-3l4.71-4.74a2.08,2.08,0,0,1,2.95,0l0.68,0.68a2.09,2.09,0,0,1,0,3Z"/><path class="cls-1" d="M49.63,33.81a2.08,2.08,0,0,1-2.95,0L46,33.12a2.1,2.1,0,0,1,0-3l4.71-4.73a2.07,2.07,0,0,1,2.95,0l0.68,0.69a2.1,2.1,0,0,1,0,3Z"/><path class="cls-1" d="M53.71,37.9a2.07,2.07,0,0,1-2.94,0l-0.69-.68a2.11,2.11,0,0,1,0-3l4.71-4.74a2.08,2.08,0,0,1,2.94,0l0.68,0.69a2.1,2.1,0,0,1,0,3Z"/><path class="cls-1" d="M132.48,32.43l-0.3,0a2.47,2.47,0,0,0-2.86-2.29c-2.1.11-3.69,2-3,5.09a3.81,3.81,0,0,0,2.1,2.74c0.45,0.18,2.95,1.4,4.23-2.13l0.28,0.09a12.41,12.41,0,0,1-.73,2.29,6.46,6.46,0,0,1-5.08.07,4.4,4.4,0,0,1-1.74-6.63,5.29,5.29,0,0,1,4.11-2,6.7,6.7,0,0,1,3,.64C132.46,30.57,132.51,32.31,132.48,32.43Z"/><path class="cls-1" d="M148.27,37.38c0,0.6,0,.91.86,1v0.26h-2.86V38.35a0.77,0.77,0,0,0,.88-0.94V35.18a1.39,1.39,0,0,0-.83-1.55,1.79,1.79,0,0,0-1.82.62l0,3.18a0.75,0.75,0,0,0,.88.92v0.26h-2.86V38.35a0.79,0.79,0,0,0,.92-0.92v-2.2c0-1.17-.42-1.56-1.17-1.67a1.75,1.75,0,0,0-1.47.7v3.16c0,0.65.12,0.85,1,.91v0.27h-3V38.34c0.77,0,.89-0.19.92-0.92V34.78a1.16,1.16,0,0,0-.34-1L139,33.57v-0.1l1.7-.75,0.08,0.09a9,9,0,0,0-.1,1,3.26,3.26,0,0,1,2.29-1,1.55,1.55,0,0,1,1.37,1,3.27,3.27,0,0,1,2.48-1,1.69,1.69,0,0,1,1.4,1.75v2.82Z"/><path class="cls-1" d="M90.51,37.43c0,0.73.51,0.86,1.35,0.92v0.26H88.67V38.35a0.78,0.78,0,0,0,.76-0.92c0-.38,0-2.49,0-2.66a1.08,1.08,0,0,0-.35-0.91l-0.31-.21V33.49l1.63-.72,0.11,0.06s0,1.28,0,1.37c0.05-.08.75-1.43,1.82-1.36s0.7,1-.05,1.39a0.9,0.9,0,0,0-1.43,0,1.93,1.93,0,0,0-.29,1.2v2Z"/><path class="cls-1" d="M100.11,33.09l0.07,1.23H99.9a1.64,1.64,0,0,0-1-1.21,0.83,0.83,0,0,0-1.18.68c-0.12.76,0.77,1,1.25,1.31,0.94,0.62,1.58,1.09,1.36,2.24s-2,1.91-3.65.86l-0.09-1.4h0.29c0.52,2.26,2.16,1.58,2.4.89a1.05,1.05,0,0,0-.71-1.47c-1.15-.61-1.67-1-1.76-1.65C96.63,32.84,98.63,32.15,100.11,33.09Z"/><path class="cls-1" d="M92.91,33.36c0.41-.31,1.69-1.58,1.69-1.58l0.13,0c0,0.2-.06,1.05-0.06,1.19h1.69v0.65H94.7c0,0.1,0,3,0,3.11,0,1.2.28,1.43,2,1.19l0.06,0.26a6.85,6.85,0,0,1-2.18.45,0.9,0.9,0,0,1-1-1c0-.24,0-4.08,0-4.08H92.91V33.36Z"/><path class="cls-1" d="M167.27,33.67c-0.07-.37-0.11-0.56.62-0.68V32.77h-2.68V33a1.07,1.07,0,0,1,.94.94l1.9,4.83s-0.39,1.1-.61,1.65S167,41,166.88,41a3.3,3.3,0,0,1-.51-0.29,0.64,0.64,0,1,0,.54,1.16c0.57-.18,1-1.49,1.11-1.73,0.25-.6,1.89-5.18,2.48-6.27a1.14,1.14,0,0,1,1-.85V32.77h-2.32V33c0.09,0,.75.09,0.73,0.54a23.85,23.85,0,0,1-1.24,3.81C168.38,36.68,167.29,33.77,167.27,33.67Z"/><path class="cls-1" d="M107.63,33c0.38,0.18.23,0.5,0.13,0.81a30.13,30.13,0,0,1-1.17,3.12c-0.07-.24-0.91-2.58-1.09-3.22s0.36-.71.79-0.75V32.77h-3V33a1,1,0,0,1,.89.54c0.06,0.12.1,0.31,0.17,0.5l-1.16,3c-0.05-.13-1-3-1.06-3.25s-0.27-.65.68-0.76V32.77h-2.66V33c0.34,0,.43.06,0.69,0.72l1.93,5H103l1.7-3.87,1.48,3.87h0.21l2.09-4.73a1.26,1.26,0,0,1,1.11-1V32.77h-2.21V33A0.75,0.75,0,0,1,107.63,33Z"/><path class="cls-1" d="M116.61,34.77c-0.06-1.35-.55-1.42-1.23-1.38a0.55,0.55,0,0,0-.6.65c0,0.11,0,.52,0,0.59s-0.71,0-1,0-0.16-.28,0-0.45a5.13,5.13,0,0,1,1.75-1.41c1.53-.58,2.21.68,2.21,1.81,0,0.46,0,2.49,0,2.49a1.07,1.07,0,0,0,1.11,1.13v0.21c-1.26.36-2.17,0.46-2.17-.55-1.6,1.66-3.41.46-2.86-1.28l2.82-1.37A1.5,1.5,0,0,0,116.61,34.77Zm0,0.89-1.73.92c-0.48,1,.62,2.17,1.7.93Z"/><path class="cls-1" d="M113.45,35.05l-3.62-.11a2.23,2.23,0,0,0,0,1.1c0.37,1.74,2.18,2.48,3.45,1l0.25,0.22A3.25,3.25,0,0,1,112,38.52c-1.84.64-3.91-.9-3.34-3.51a2.87,2.87,0,0,1,3-2.32C113.11,32.82,113.47,34.43,113.45,35.05ZM111,33.11a1.42,1.42,0,0,0-1.14,1.34h2.28A1.28,1.28,0,0,0,111,33.11Z"/><path class="cls-1" d="M87,14.53l-0.56,0c-0.21-1.23-1-5.36-6.38-5.07-4.57.24-8.27,4.68-6.84,11.33a8.35,8.35,0,0,0,4.82,5.87c1,0.39,6.47,2.94,9.25-4.74l0.53,0.24a27.34,27.34,0,0,1-1.54,5,14.26,14.26,0,0,1-11.12.15c-5.9-2.46-7.12-9.74-3.78-14.43,2.86-4,7.71-4.28,9-4.35A14.51,14.51,0,0,1,87,9.93C87,10.48,87.09,14.25,87,14.53Z"/><path class="cls-1" d="M105.35,8.25c0,0.46-.05,17.19,0,17.42,0,1.41.37,1.81,2.21,1.95v0.52h-6.79V27.62c1.68-.11,2.2-0.37,2.24-2,0-.83,0-12.77,0-13.14a3,3,0,0,0-.62-2.27s-0.66-.61-0.71-0.63V9.34L105,8.11Z"/><path class="cls-1" d="M141.32,25.56c0,1.3.09,1.92,1.92,2v0.53H137V27.6c1.67-.1,2-0.66,2-2v-5c0-2.08-.69-2.86-1.85-3.27-1.57-.56-2.78.11-4,1.16l-0.06,7.12c0,1.19.12,1.82,2,1.94v0.53h-6.23V27.6c1.62-.16,2-0.47,2-1.93V20.78c0-2.56-.94-3.29-2.61-3.53A4,4,0,0,0,125,18.49v7.17c0,1.4.3,1.82,2.14,1.94v0.53h-6.41V27.6c1.68-.1,2-0.37,2-1.95V19.8a2.46,2.46,0,0,0-.73-2.08s-0.64-.48-0.68-0.5V17l3.59-1.62,0.18,0.19c0,0.1-.25,2-0.21,2.17,0.63-.53,2.72-2.5,5-2.22a3.47,3.47,0,0,1,3,2.27c0.28-.23,2.62-2.68,5.34-2.21a3.62,3.62,0,0,1,3,3.81Z"/><path class="cls-1" d="M116.6,25.45c0-.2.09-6.69,0.09-6.8,0-2.57-2.46-2.09-2.78-2.09V16s5-.39,5.25-0.43c-0.15.34-.21,8.51-0.23,10.06s0.8,1.33,1,1.33a4.22,4.22,0,0,0,.81-0.13l-0.15.64c-0.13,0-3.65.95-4,1V26.34c-3.81,2.82-7.27,2.63-7.94-.21a7.52,7.52,0,0,1-.18-1.71c-0.08-2.08,0-5.36-.12-6.58a1.53,1.53,0,0,0-2-1.31V16l4.37-.43c-0.06,1,.08,8,0.08,8.4C110.83,26.86,113.63,27.87,116.6,25.45Z"/><ellipse class="cls-1" cx="158.42" cy="11.01" rx="1.47" ry="1.45"/><path class="cls-1" d="M159.73,15.52c-0.06.46-.06,9.91-0.06,10.14,0,1.41.33,1.82,2.16,1.94v0.53H155V27.6c1.68-.11,2.37-0.37,2.42-1.95,0-.83,0-5.5,0-5.86a2.26,2.26,0,0,0-.76-2s-0.89-.75-0.93-0.77V16.81l3.73-1.41Z"/><path class="cls-1" d="M101.55,21.86a6.51,6.51,0,0,1-6.86,6.49c-4,0-6.87-2.43-6.87-6.49a6.61,6.61,0,0,1,6.87-6.48C98.85,15.37,101.56,18,101.55,21.86ZM94.69,16.2c-2.62,0-4.18,2.36-4.18,5.65s1.85,5.64,4.18,5.64c2.51,0,4.17-1.83,4.17-5.64C98.87,18.56,97.16,16.17,94.69,16.2Z"/><path class="cls-1" d="M143.51,12.5c0-.45.15-1.63-0.56-2.21,0,0-.8-0.56-0.86-0.58V9.44l3.6-1.33,0.2,0.14c0,0.15-.15,8.6-0.16,8.76,2.6-1.79,7-2.8,9.27,1.44a7,7,0,0,1-3.73,9.3,9.82,9.82,0,0,1-7.8-.46C143.47,26,143.51,12.58,143.51,12.5Zm2.22,11c0,4.9,5.13,4.62,6.59,2.08,1.79-3.15.68-6.5-1.66-7.82a5.17,5.17,0,0,0-4.9,0S145.74,21.81,145.73,23.48Z"/><path class="cls-1" d="M168.11,20c-0.2-2.87-1.4-3.13-2.6-3.16a1.54,1.54,0,0,0-1.77,1.4c0,0.23,0,1.18,0,1.32a10,10,0,0,1-1.75.08c-0.59-.07-0.34-0.61-0.06-1a10.51,10.51,0,0,1,3.83-2.86c3.31-1.11,4.57,1.46,4.57,3.86,0,1,0,5.3,0,5.3,0,2.31,2,2.16,2.5,2.35v0.49c-2.4.88-4.67,1-4.68-1.16-3.42,3.55-7.23,1.18-6-2.55l6.07-2.82A4.39,4.39,0,0,0,168.11,20Zm0,2.13-3.67,2c-1,2.18,1.32,4.32,3.62,1.68Z"/><path class="cls-1" d="M120.64,37.48c0,0.72.51,0.86,1.36,0.91v0.22h-3.19V38.39a0.77,0.77,0,0,0,.75-0.92c0-.38,0-2.54,0-2.7a1.05,1.05,0,0,0-.35-0.91,2.76,2.76,0,0,0-.3-0.21V33.49l1.63-.72,0.11,0.06s0,1.19,0,1.27a2.65,2.65,0,0,1,2-1.26c0.95,0.07.7,1-.06,1.38a1,1,0,0,0-1.53,0,2,2,0,0,0-.33,1.2C120.65,35.65,120.64,37.43,120.64,37.48Z"/><path class="cls-1" d="M157.82,34.82c-0.07-1.35-.55-1.43-1.23-1.39s-0.53.46-.55,0.57,0,0.52,0,.59-0.71,0-1,0-0.15-.29,0-0.45a4.76,4.76,0,0,1,1.68-1.32c1.53-.57,2.22.68,2.22,1.81,0,0.46,0,2.48,0,2.48a1.07,1.07,0,0,0,1.1,1.13v0.21c-1.26.36-2.15,0.46-2.17-.55-1.6,1.67-3.41.46-2.85-1.29l2.82-1.37A1.49,1.49,0,0,0,157.82,34.82Zm0,0.88-1.73.92c-0.49,1,.62,2.17,1.71.94Z"/><path class="cls-1" d="M70.54,38.06c2.47,1.49,5.29.26,5.46-1.54,0.13-1.42-.58-2.21-2.07-3-0.75-.41-2.33-1.07-2.1-2.19a1.58,1.58,0,0,1,2.1-1.18,2.05,2.05,0,0,1,1.32,1.95h0.23c0-.26.08-1.36,0.13-1.92-2-1.24-5.19-.32-4.91,2.2,0.11,1,1.05,1.59,2.77,2.54,1.25,0.69,1.59,1.92.85,2.82-0.6.73-3,1.25-3.83-1.85l-0.23,0A11.85,11.85,0,0,0,70.54,38.06Z"/><path class="cls-1" d="M88.61,35.7a2.93,2.93,0,0,1-3.08,3,2.89,2.89,0,0,1-3.14-3,3,3,0,0,1,3.14-3A2.85,2.85,0,0,1,88.61,35.7Zm-3.08,2.59c1,0,1.72-1,1.72-2.6s-0.71-2.6-1.72-2.6-1.72,1.1-1.72,2.6S84.58,38.29,85.53,38.29Z"/><path class="cls-1" d="M139.14,35.72a2.93,2.93,0,0,1-3.08,3,2.83,2.83,0,0,1-3.08-3,3,3,0,0,1,3.08-3A2.85,2.85,0,0,1,139.14,35.72Zm-3.08,2.59c0.95,0,1.71-1,1.71-2.6s-0.7-2.6-1.71-2.6-1.72,1.09-1.72,2.6S135.09,38.31,136.06,38.31Z"/><path class="cls-1" d="M165.33,37.42c0.06,0.54,0,.86.88,0.92v0.26h-2.9V38.34c0.74-.08.91-0.25,1-0.91v-2.2c0-1.23-.32-1.6-1.15-1.69a2.1,2.1,0,0,0-1.56.6v3.28c0,0.79.18,0.83,1,.92V38.6h-3V38.34a0.78,0.78,0,0,0,.9-0.93V34.77a1.18,1.18,0,0,0-.34-1s-0.29-.23-0.31-0.23v-0.1l1.7-.75,0.11,0.08s-0.13.86-.11,1a3.91,3.91,0,0,1,2.54-1,1.52,1.52,0,0,1,1.28,1.62C165.34,34.51,165.33,37.39,165.33,37.42Z"/><path class="cls-1" d="M153.55,33c-1.39-.85-3,0.36-3.17.44a5.92,5.92,0,0,1,0-.74l-0.09-.07-1.64.65v0.11L149,33.71a1.32,1.32,0,0,1,.36,1c0,0.52.06,5.79,0.06,5.79,0,0.33,0,.82-1,0.85v0.26h3.51V41.37c-1.33,0-1.42-.36-1.44-1,0-.12,0-1.67,0-1.86A4,4,0,0,0,153.5,38,3,3,0,0,0,153.55,33Zm-1.66,5.06a1.4,1.4,0,0,1-1.47-1.58c-0.05-.34,0-2.59,0-2.59a2,2,0,0,1,2.61.13C154.29,35.34,153.94,38.06,151.88,38.11Z"/><path class="cls-1" d="M171,36.8V37h-0.45v1.2H170.4V37h-0.46V36.8H171Z"/><path class="cls-1" d="M171.21,36.8h0.26L171.86,38l0.39-1.15h0.26v1.36h-0.17V37.22a1.37,1.37,0,0,0,0-.2L172,38.16h-0.18L171.38,37v0s0,0.09,0,.16,0,0.12,0,.15v0.8h-0.18V36.8Z"/></svg>