<svg id="Layer_4" data-name="Layer 4" xmlns="http://www.w3.org/2000/svg" viewBox="0 0 210 50"><defs><style>.cls-1,.cls-2{fill:#231f20;}.cls-2{fill-rule:evenodd;}</style></defs><title>customers</title><path class="cls-1" d="M75.88,25.14c-3.18.24-7.24,0.83-7.21,1.94s3,3.4,7,4.86C75.81,29.55,75.86,27,75.88,25.14Zm-11.63-12c-1,0-1.84-.43-1.86-1.07A3.88,3.88,0,0,1,64,9.91a18.21,18.21,0,0,1,6-1.05,34.86,34.86,0,0,1,5.3.39C86,10.84,97.23,19,97.44,26.24,97.59,31.17,93.34,35.79,85,36a21.38,21.38,0,0,1-6.08-.69c0,1.21.05,1.85-1.67,1.9-1,0-1.46-1.67-1.61-3.05-5-2.23-8-5.84-8.08-7.27-0.06-2.12,3.8-3.9,8.32-4.6,0.06-1.76.36-6.24,1.29-6.27,0.37,0,1.15.85,1.44,2.18a23.67,23.67,0,0,1,.3,3.79h0.34c6.34-.19,10.14,1.79,10.21,4.14a2.73,2.73,0,0,1-2.4,2.78,2.26,2.26,0,0,1-1.84-.72c0-.5,1.8-0.62,1.78-1.43C87,25.57,81.94,25,78.84,25c0,1.05,0,2.32,0,3.18s0.08,2.94.1,4.71a18.2,18.2,0,0,0,4.28.42c3.35-.1,11-1.32,10.83-7.07-0.24-8-16.11-15.4-24.61-15.15-3.35.1-5.36,0.46-5.35,0.79s1.63,0.3,1.64.74S64.81,13.12,64.24,13.14Z"/><path class="cls-2" d="M99.87,21.91c0.55,0,1.33,1.3,1.36,2.12s0.22,5.11.28,6.34a18.72,18.72,0,0,1-.06,3c-0.08.55-.28,0.82-1.22,0.85a1.32,1.32,0,0,1-1.46-1.36c-0.08-.83-0.15-3.18-0.11-4.35s0.1-3.43.25-4.84S99.44,21.92,99.87,21.91Z"/><path class="cls-2" d="M106,6.71c-0.16-.39-0.68-1.18-2.55-1.12-4.07.12-7.2,3.13-7.13,5.51a3,3,0,0,0,.94,2,2.1,2.1,0,0,0-.15.8c0,0.41.63,1.5,1.11,1.49a1.62,1.62,0,0,0,1.07-1,5,5,0,0,0,1.85.37c3.83-.11,7.3-3.7,7.23-6A2.08,2.08,0,0,0,106,6.71Zm-5.77,5.7c0.47-.66,2.91-3.94,5.43-4a0.84,0.84,0,0,1,.95.94c0,0.79-1.4,3.08-4.61,3.18A9.21,9.21,0,0,1,100.26,12.4Zm-2-1.09a1,1,0,0,1-.12-0.49,3.42,3.42,0,0,1,3.17-2.7,9.67,9.67,0,0,0-1.75,1.56A16.31,16.31,0,0,0,98.27,11.32Z"/><path class="cls-2" d="M109.79,21.69c2.24-.07,5,0.22,5.07.94a1.39,1.39,0,0,1-1.4,1.42c-1.41.14-8.52,0.44-8.49,1.32,0,0.46,2.15.57,4.11,0.69s5.25,0.2,5.34,3.46c0.08,2.57-.9,3.12-1.34,3.32a12.06,12.06,0,0,1-3.86,1c-4.32.13-6.1-2.35-6.14-3.61s1.12-2.11,3.06-2.17,4.94,0.64,5,1.44c0,0.65-1.3,1-1.89,1-2.64.08-2.51-1-4-1-0.87,0-2.09,1.87,2.26,1.74,3.87-.12,5-1.39,5-2.08,0-.91-2.81-1.35-4.42-1.43s-4-.07-4.85-0.59-0.71-1.7-.42-2.67C103.38,22.47,107.55,21.76,109.79,21.69Z"/><path class="cls-2" d="M117.44,22.53c1.51,0,4.69,6.82,5.22,6.8s0.14-1.6-.2-3.36c-0.76-4-2-6-.84-6,0.83,0,3.54,2.6,3.69,7.69,0.07,2.36-.26,5.45-2.4,5.51s-4.34-6.34-4.86-6.33c-0.28,0-.31,4-0.38,5.16s-0.49,1.83-1.16,1.85c-1,0-1.45-.94-1.51-2.84S115.58,22.59,117.44,22.53Z"/><path class="cls-1" d="M132.83,26.25c0.72,0,1.35-.14,1.29.79s-0.1,1.31-.85,1.33l-3.83.11c-0.13.43-.45,1.52-0.6,2s0.4,0.45,1.15.24a22.47,22.47,0,0,1,3.63-.62c0.84,0,1.46,1.31,1,1.77s-3.07,2.65-5.78,2.73A2.86,2.86,0,0,1,126,31.78a9.81,9.81,0,0,1,.73-3.25,0.68,0.68,0,0,1-.21-0.48c-0.12-.65-0.41-1.37.67-1.49l0.32,0,0.9-1.85a3.3,3.3,0,0,1-.92-0.25,2.3,2.3,0,0,1-1.19-1.49c0-.8,5.82-1.27,7.17-1.31s1.87,0.24,2.33.9a3.25,3.25,0,0,1,.64,1.31c0,0.18-.16.63-1.92,0.68-0.9,0-2.35.18-3.74,0.23l-0.61,1.62Z"/><path class="cls-2" d="M136.79,31.77c-1.57,3.1-2.63,6.37-2.55,8.84,0.08,2.78,1.79,3.82,2.31,3.8s0.55-.84.64-1.45a41.26,41.26,0,0,1,2.48-9.14,4.4,4.4,0,0,0,1.2.14c3.18-.09,6.87-3.9,6.75-7.94-0.06-2.14-.88-3.65-2.25-3.61-2,.06-4.88,3.09-7.2,6.89-0.21-1.54,1-3.92,2-5.58,0.73-1.17.6-2.55,0.3-2.54s-4.53,3.49-4.39,8.25A4.56,4.56,0,0,0,136.79,31.77Zm4.24-1c1.92-3.75,3.89-5.88,4.59-5.9C146.83,24.87,145.81,30.32,141,30.81Z"/></svg>