<svg id="Layer_1" data-name="Layer 1" xmlns="http://www.w3.org/2000/svg" viewBox="0 0 210 50"><defs><style>.cls-1{fill:#ed1c2e;}.cls-2{fill:#231f20;}</style></defs><title>customers</title><path class="cls-1" d="M48.37,30.2a5.3,5.3,0,1,0-5.3-5.3,5.3,5.3,0,0,0,5.3,5.3h0Zm0,5A10.21,10.21,0,1,0,38.16,25,10.21,10.21,0,0,0,48.37,35.21h0ZM33,25A15.37,15.37,0,1,1,48.37,40.37,15.37,15.37,0,0,1,33,25h0Z"/><polygon class="cls-2" points="68.74 13.97 86.25 13.97 86.25 18.39 80.23 18.39 80.23 36.1 74.88 36.1 74.88 18.42 68.74 18.42 68.74 13.97 68.74 13.97"/><path class="cls-2" d="M112.63,18.42h-4.91v4.42s3.83,0,4.4,0c1.54,0,2.73-.72,2.73-2.23a2,2,0,0,0-2.22-2.19h0Zm-10-4.45H113c5.91,0,6.73,4,6.73,6.4a6,6,0,0,1-3.21,5.21,4.21,4.21,0,0,1,2.59,3.9v4.13a3.49,3.49,0,0,0,1.19,2.5h-4.22c-2-.23-2-1.83-2-2.75V29.8c0-.87-0.31-1.83-2.13-1.87h-4.27V36.1H102.6l0-22.13h0Z"/><polygon class="cls-2" points="142.33 13.97 142.33 36.1 158.27 36.1 158.27 31.55 147.53 31.55 147.53 26.6 156.7 26.6 156.7 22.41 147.53 22.41 147.53 18.42 158.27 18.42 158.27 13.97 142.33 13.97 142.33 13.97"/><polygon class="cls-2" points="159.03 18.42 165.35 18.42 165.35 36.1 170.58 36.1 170.58 18.42 177 18.42 177 13.97 159.03 13.97 159.03 18.42 159.03 18.42"/><path class="cls-2" d="M91.79,21.78L89.9,27.49h3.88l-2-5.71h0Zm-3-7.81H94.5l7.74,22.14H96.73l-1.6-4.6H88.6L87.1,36.1H81.63L88.82,14h0Z"/><path class="cls-2" d="M140.5,23.74H131V28h4.52a3.77,3.77,0,0,1-.93,3,4.67,4.67,0,0,1-3.33,1.37,5,5,0,0,1-3.41-1.19c-2-1.7-2.48-4.89-2.48-6.56,0-2.1.83-7.3,6-7.51,0,0,3.46-.22,4.36,3.94h4.8a9.24,9.24,0,0,0-9.15-8.05,10.52,10.52,0,0,0-7.56,3.08,12.15,12.15,0,0,0-3.29,8.76,12.75,12.75,0,0,0,3.14,8.94,8.72,8.72,0,0,0,6.67,3,10.21,10.21,0,0,0,5.91-2l0.72,1.24h3.6V23.74h0Z"/><path class="cls-2" d="M173,34.64h0.28c0.18,0,.31,0,0.31-0.22s-0.18-.19-0.32-0.19H173v0.41h0ZM172.7,34h0.59c0.39,0,.61.12,0.61,0.46a0.39,0.39,0,0,1-.41.42l0.42,0.68h-0.32l-0.38-.67H173v0.67H172.7V34h0Zm0.56,1.88a1.1,1.1,0,1,0-1.05-1.1,1.06,1.06,0,0,0,1.05,1.1h0Zm0-2.49a1.4,1.4,0,1,1-1.43,1.39,1.38,1.38,0,0,1,1.43-1.39h0Z"/></svg>