<svg id="Layer_2" data-name="Layer 2" xmlns="http://www.w3.org/2000/svg" viewBox="0 0 210 50"><defs><style>.cls-1{fill:#007dc3;}.cls-2{fill:#fdbb30;}</style></defs><title>customers</title><path class="cls-1" d="M35.25,41.71a3.75,3.75,0,0,0,1.62.4c0.67,0,1-.28,1-0.7s-0.31-.63-1.09-0.91c-1.08-.38-1.78-1-1.78-1.91,0-1.11.92-2,2.45-2a4,4,0,0,1,1.65.33l-0.33,1.18a3.08,3.08,0,0,0-1.36-.31,0.77,0.77,0,0,0-.94.62c0,0.41.36,0.6,1.2,0.91,1.14,0.42,1.68,1,1.68,1.93,0,1.09-.84,2-2.62,2a4.21,4.21,0,0,1-1.84-.4Z"/><path class="cls-1" d="M44.35,42.07a7.23,7.23,0,0,0,.07,1.14H43.1L43,42.74h0a1.69,1.69,0,0,1-1.35.58,1.44,1.44,0,0,1-1.52-1.44c0-1.22,1.1-1.81,2.76-1.8V40c0-.25-0.14-0.6-0.86-0.6a2.64,2.64,0,0,0-1.3.36l-0.27-.94a3.87,3.87,0,0,1,1.83-.41,1.83,1.83,0,0,1,2.07,2v1.63ZM42.93,41c-0.77,0-1.37.17-1.37,0.74a0.53,0.53,0,0,0,.58.56,0.8,0.8,0,0,0,.76-0.54,1.05,1.05,0,0,0,0-.25V41Z"/><path class="cls-1" d="M46.47,38.51l0.63,2.18a11,11,0,0,1,.27,1.14h0c0.08-.38.15-0.74,0.26-1.14l0.61-2.18h1.54l-1.75,4.7H46.6l-1.71-4.7h1.59Z"/><path class="cls-1" d="M51.46,41.33a1.15,1.15,0,0,0,1.33.89,4.18,4.18,0,0,0,1.3-.19l0.19,1a4.67,4.67,0,0,1-1.7.3,2.26,2.26,0,0,1-2.51-2.4,2.36,2.36,0,0,1,2.38-2.51,2.09,2.09,0,0,1,2.1,2.35,3.46,3.46,0,0,1,0,.58h-3Zm1.72-1a0.85,0.85,0,0,0-.83-1,1,1,0,0,0-.9,1h1.73Z"/><path class="cls-1" d="M57.36,40c0-.59,0-1.09,0-1.5h1.23l0.07,0.63h0a1.63,1.63,0,0,1,1.42-.74,1.33,1.33,0,0,1,1.29.8h0A2,2,0,0,1,62,38.64a1.7,1.7,0,0,1,.89-0.23c0.9,0,1.59.64,1.59,2v2.77H63V40.66c0-.68-0.22-1.08-0.69-1.08a0.72,0.72,0,0,0-.67.51,1.22,1.22,0,0,0-.06.37v2.75H60.19V40.58c0-.6-0.21-1-0.67-1a0.74,0.74,0,0,0-.68.53,1,1,0,0,0-.06.37v2.74H57.36V40Z"/><path class="cls-1" d="M70.27,40.81a2.36,2.36,0,0,1-2.48,2.51,2.3,2.3,0,0,1-2.43-2.42,2.35,2.35,0,0,1,2.51-2.49A2.29,2.29,0,0,1,70.27,40.81Zm-3.4,0c0,0.81.34,1.41,1,1.41s0.93-.57.93-1.41A1,1,0,1,0,66.87,40.86Z"/><path class="cls-1" d="M71.17,40c0-.59,0-1.09,0-1.5H72.4l0.07,0.64h0A1.72,1.72,0,0,1,74,38.41c1,0,1.68.64,1.68,2v2.79H74.17v-2.6a0.82,0.82,0,0,0-.74-1,0.78,0.78,0,0,0-.74.55,1,1,0,0,0-.06.37v2.71H71.17V40Z"/><path class="cls-1" d="M77.93,41.33a1.15,1.15,0,0,0,1.33.89,4.18,4.18,0,0,0,1.3-.19l0.19,1a4.67,4.67,0,0,1-1.7.3,2.26,2.26,0,0,1-2.51-2.4,2.36,2.36,0,0,1,2.37-2.51A2.09,2.09,0,0,1,81,40.75a3.41,3.41,0,0,1,0,.58h-3Zm1.72-1a0.85,0.85,0,0,0-.83-1,1,1,0,0,0-.9,1h1.73Z"/><path class="cls-1" d="M82.92,38.51l0.7,2.31c0.08,0.28.17,0.62,0.23,0.87h0c0.07-.25.14-0.6,0.21-0.87l0.58-2.31h1.57l-1.1,3.1a7.21,7.21,0,0,1-1.65,3.09,2.7,2.7,0,0,1-1.41.64L81.77,44.1a1.85,1.85,0,0,0,.63-0.25A1.69,1.69,0,0,0,83,43.26a0.37,0.37,0,0,0,.08-0.21A0.53,0.53,0,0,0,83,42.81l-1.72-4.3h1.62Z"/><path class="cls-1" d="M87.59,43.32a0.89,0.89,0,1,1,.87-0.89,0.84,0.84,0,0,1-.87.89h0Z"/><path class="cls-1" d="M91.73,36.73H93.2V42h2.58v1.23h-4V36.73Z"/><path class="cls-1" d="M98.3,37.21a0.73,0.73,0,0,1-.79.73,0.74,0.74,0,1,1,0-1.47A0.73,0.73,0,0,1,98.3,37.21Zm-1.51,6v-4.7h1.46v4.7H96.79Z"/><path class="cls-1" d="M100.7,38.51l0.63,2.18a11.17,11.17,0,0,1,.27,1.14h0c0.08-.38.15-0.74,0.26-1.14l0.61-2.18H104l-1.75,4.7h-1.46l-1.71-4.7h1.59Z"/><path class="cls-1" d="M105.69,41.33a1.15,1.15,0,0,0,1.33.89,4.18,4.18,0,0,0,1.3-.19l0.19,1a4.66,4.66,0,0,1-1.7.3,2.26,2.26,0,0,1-2.51-2.4,2.36,2.36,0,0,1,2.38-2.51,2.09,2.09,0,0,1,2.1,2.35,3.25,3.25,0,0,1,0,.58h-3Zm1.72-1a0.85,0.85,0,0,0-.83-1,1,1,0,0,0-.9,1h1.73Z"/><path class="cls-1" d="M111.58,36.39H113v2.68h0a1.66,1.66,0,0,1,1.42-.66,2.08,2.08,0,0,1,1.94,2.38,2.26,2.26,0,0,1-2.15,2.54,1.56,1.56,0,0,1-1.41-.76h0l-0.06.65h-1.24c0-.31,0-0.87,0-1.4V36.39ZM113,41.22a1.1,1.1,0,0,0,0,.26,0.88,0.88,0,0,0,.86.69,1.1,1.1,0,0,0,1-1.33,1.1,1.1,0,0,0-1-1.31,0.9,0.9,0,0,0-.86.72,1.23,1.23,0,0,0,0,.27v0.69Z"/><path class="cls-1" d="M118.49,41.33a1.15,1.15,0,0,0,1.33.89,4.18,4.18,0,0,0,1.3-.19l0.19,1a4.67,4.67,0,0,1-1.7.3,2.26,2.26,0,0,1-2.51-2.4,2.36,2.36,0,0,1,2.38-2.51,2.08,2.08,0,0,1,2.1,2.35,3.51,3.51,0,0,1,0,.58h-3Zm1.72-1a0.85,0.85,0,0,0-.82-1,1,1,0,0,0-.9,1h1.73Z"/><path class="cls-1" d="M124.27,37.23v1.28h1v1.08h-1v1.7c0,0.57.14,0.83,0.58,0.83a1.84,1.84,0,0,0,.43,0v1.11a2.87,2.87,0,0,1-1,.13,1.52,1.52,0,0,1-1.09-.41,2,2,0,0,1-.4-1.39V39.59h-0.62V38.51h0.62V37.63Z"/><path class="cls-1" d="M128,37.23v1.28h1v1.08h-1v1.7c0,0.57.13,0.83,0.58,0.83a1.85,1.85,0,0,0,.43,0v1.11a2.85,2.85,0,0,1-1,.13,1.52,1.52,0,0,1-1.1-.41,2,2,0,0,1-.4-1.39V39.59h-0.63V38.51h0.63V37.63Z"/><path class="cls-1" d="M131.2,41.33a1.15,1.15,0,0,0,1.33.89,4.17,4.17,0,0,0,1.3-.19L134,43a4.65,4.65,0,0,1-1.7.3,2.26,2.26,0,0,1-2.51-2.4,2.36,2.36,0,0,1,2.38-2.51,2.09,2.09,0,0,1,2.1,2.35,3.31,3.31,0,0,1,0,.58h-3Zm1.72-1a0.85,0.85,0,0,0-.83-1,1,1,0,0,0-.91,1h1.73Z"/><path class="cls-1" d="M135.34,40.06c0-.69,0-1.14,0-1.55h1.26l0,0.87h0a1.38,1.38,0,0,1,1.27-1,1.49,1.49,0,0,1,.31,0v1.39a1.42,1.42,0,0,0-.39,0,0.94,0.94,0,0,0-1,.74,1.76,1.76,0,0,0,0,.33v2.38h-1.46V40.06Z"/><path class="cls-1" d="M139.73,43.32a0.89,0.89,0,1,1,.87-0.89,0.84,0.84,0,0,1-.87.89h0Z"/><path class="cls-2" d="M160.39,16.32a1.48,1.48,0,0,0,1.57-1l0.8-9.06c0-.9-1-1.63-2.37-1.63S158,5.4,158,6.29l0.8,9.06a1.48,1.48,0,0,0,1.57,1h0Z"/><path class="cls-2" d="M155.49,19.15a1.48,1.48,0,0,0-.05-1.84L148,12.09c-0.77-.45-1.94.09-2.59,1.23s-0.54,2.42.23,2.86L153.87,20a1.49,1.49,0,0,0,1.62-.88h0Z"/><path class="cls-2" d="M165.29,19.15a1.49,1.49,0,0,0,1.62.88l8.25-3.84c0.78-.45.89-1.72,0.23-2.86s-1.83-1.68-2.6-1.23l-7.45,5.22a1.48,1.48,0,0,0-.05,1.84h0Z"/><path class="cls-2" d="M160.39,27.64a1.48,1.48,0,0,1,1.57,1l0.8,9.06c0,0.9-1,1.63-2.37,1.63S158,38.56,158,37.67l0.8-9.06a1.48,1.48,0,0,1,1.57-1h0Z"/><path class="cls-2" d="M165.29,24.81a1.48,1.48,0,0,1,1.62-.87l8.25,3.84c0.78,0.45.89,1.73,0.23,2.87s-1.83,1.68-2.6,1.23l-7.45-5.22a1.49,1.49,0,0,1-.05-1.84h0Z"/><path class="cls-2" d="M155.49,24.81a1.48,1.48,0,0,1-.05,1.84L148,31.87c-0.77.45-1.94-.09-2.59-1.23s-0.54-2.42.23-2.87l8.25-3.84a1.48,1.48,0,0,1,1.62.87h0Z"/><path class="cls-1" d="M117.48,23c0-3.42-1.46-6.43-6.4-6.43a11.7,11.7,0,0,0-5.65,1.35l0.8,2.75a8.27,8.27,0,0,1,4.12-1.16c2.51,0,2.92,1.42,2.92,2.33v0.22c-5.46,0-8.91,1.88-8.91,5.74a4.55,4.55,0,0,0,4.81,4.56,5.47,5.47,0,0,0,4.39-2h0.09S114.28,33,117.72,32a22.05,22.05,0,0,1-.24-3.64V23Zm-4.08,3.61a2.67,2.67,0,0,1-2.86,2.75,1.86,1.86,0,0,1-2-2c0-2.07,2.28-2.65,4.88-2.63v1.88Z"/><path class="cls-1" d="M32.38,11.93s3.57,14.63,4.14,17c0.66,2.77,1.86,3.79,5.32,3.1L44.06,23c0.56-2.25.94-3.86,1.31-6.15h0.06A60.09,60.09,0,0,0,46.52,23s0.91,4.12,1.37,6.28S49.65,32.77,53,32l5.31-20.1H54.06l-1.81,8.69c-0.49,2.53-.93,4.51-1.27,6.82H50.91c-0.31-2.29-.7-4.19-1.2-6.65l-1.89-8.86H43.36l-2,8.63c-0.57,2.62-1.11,4.74-1.45,7H39.83c-0.35-2.11-.81-4.77-1.32-7.31,0,0-1.2-6.18-1.62-8.3H32.38Z"/><path class="cls-1" d="M70.53,23c0-3.42-1.46-6.43-6.4-6.43a11.7,11.7,0,0,0-5.65,1.35l0.8,2.75a8.28,8.28,0,0,1,4.12-1.16c2.51,0,2.92,1.42,2.92,2.33v0.22c-5.46,0-8.92,1.88-8.92,5.74a4.55,4.55,0,0,0,4.81,4.56,5.48,5.48,0,0,0,4.4-2H66.7S67.33,33,70.77,32a22.07,22.07,0,0,1-.24-3.64V23Zm-4.08,3.61a2.67,2.67,0,0,1-2.86,2.75,1.86,1.86,0,0,1-2-2c0-2.07,2.28-2.65,4.88-2.63v1.88Z"/><polygon class="cls-1" points="77.33 27.76 77.33 11.93 73.25 11.93 73.25 32.03 77.33 32.03 77.33 27.76"/><path class="cls-1" d="M130.74,11.93V26.76c0,2,.39,3.48,1.21,4.35a4.52,4.52,0,0,0,3.32,1.26,9.7,9.7,0,0,0,3-.44l-0.05-3.19a6.22,6.22,0,0,1-1.55.18c-1.39,0-1.86-.89-1.86-2.73V20.53h3.55V16.68h-3.55V11.93h-4Z"/><path class="cls-1" d="M120.2,16.93V32h4.21V24.3a5.75,5.75,0,0,1,.09-1.11,3.18,3.18,0,0,1,3.33-2.66,7.7,7.7,0,0,1,1.22.11v-4a4.06,4.06,0,0,0-.93-0.09A4.44,4.44,0,0,0,124,19.78H123.9V16.93H120.2Z"/><path class="cls-1" d="M80.19,16.93V32h4.1V23.18a3.54,3.54,0,0,1,.19-1.24A2.78,2.78,0,0,1,87,20c1.66,0,2.43,1.4,2.43,3.42V32h4.1v-9a4.2,4.2,0,0,1,.17-1.22A2.59,2.59,0,0,1,96.14,20c1.68,0,2.48,1.38,2.48,3.75V32h4.1V23.14c0-4.69-2.38-6.55-5.07-6.55a5.47,5.47,0,0,0-3,.82,6.36,6.36,0,0,0-1.91,1.88H92.71a4.31,4.31,0,0,0-4.16-2.7A4.75,4.75,0,0,0,84.15,19H84.09V16.93h-3.9Z"/><path class="cls-2" d="M176.91,31.11a0.7,0.7,0,1,1-.73.7,0.71,0.71,0,0,1,.72-0.7h0Zm0,0.14a0.56,0.56,0,0,0,0,1.12,0.54,0.54,0,0,0,.53-0.56,0.54,0.54,0,0,0-.54-0.56h0Zm-0.11.92h-0.16v-0.7a1.36,1.36,0,0,1,.27,0,0.4,0.4,0,0,1,.24.06,0.19,0.19,0,0,1,.07.15,0.18,0.18,0,0,1-.15.17h0a0.2,0.2,0,0,1,.13.17,0.47,0.47,0,0,0,.05.17h-0.18A0.56,0.56,0,0,1,177,32a0.12,0.12,0,0,0-.15-0.11h-0.08v0.28Zm0-.39h0.08c0.09,0,.16,0,0.16-0.1s0-.11-0.15-0.11H176.8v0.2Z"/></svg>