<svg id="Layer_5" data-name="Layer 5" xmlns="http://www.w3.org/2000/svg" viewBox="0 0 80 80"><defs><style>.cls-1{fill:#00bad5;}</style></defs><title>icons</title><path class="cls-1" d="M44.79,51.57a3.36,3.36,0,0,0-.94-0.68A11.31,11.31,0,0,0,41.47,50v6.3A4.47,4.47,0,0,0,45,54.49a2.88,2.88,0,0,0,.26-2,2,2,0,0,0-.47-0.95h0Zm0,0"/><path class="cls-1" d="M35.28,41.5a2.36,2.36,0,0,0-.41,1.11A2.64,2.64,0,0,0,35,43.83a2,2,0,0,0,.76.84,5.89,5.89,0,0,0,1.13.58c0.33,0.13.7,0.26,1.1,0.38v-5.7a4.35,4.35,0,0,0-2.73,1.56h0Zm0,0"/><path class="cls-1" d="M43.69,20.11C49,15.61,52.63,5.46,50.42,5c-2.93-.59-9.29,2-12.36,2.45C33.71,8,29,2.75,26.3,5.67c-2.17,2.38,1.55,11,7.37,14.81C16.31,29-8.1,71.85,34.48,75c58.91,4.3,29.41-46.54,9.21-54.85h0Zm5.06,33.78a6.2,6.2,0,0,1-2.39,4.2,9.13,9.13,0,0,1-4.89,1.73v1.85a1.73,1.73,0,0,1-3.47,0v-2q-0.45-.08-0.89-0.2a8.51,8.51,0,0,1-4.24-2.61,7.63,7.63,0,0,1-1.31-2.16c-0.08-.21-0.15-0.42-0.22-0.63a3.19,3.19,0,0,1-.14-0.59,1.73,1.73,0,0,1,3.37-.72c0.07,0.2.11,0.4,0.18,0.6a3.86,3.86,0,0,0,.27.57,4.41,4.41,0,0,0,.76,1,5.16,5.16,0,0,0,2.2,1.2V49.24a12.34,12.34,0,0,1-4.54-2,5.29,5.29,0,0,1-1.53-1.84A5.76,5.76,0,0,1,31.39,43a5.91,5.91,0,0,1,.52-2.51,6.12,6.12,0,0,1,1.42-2A8.68,8.68,0,0,1,38,36.42V34.5a1.73,1.73,0,0,1,3.47,0v1.91l0.68,0.1a8.55,8.55,0,0,1,4.52,2.2,6.63,6.63,0,0,1,1.38,2,6.36,6.36,0,0,1,.24.63,3.87,3.87,0,0,1,.16.62,1.73,1.73,0,0,1-.14,1,1.73,1.73,0,0,1-3.19-.11C45.06,42.64,45,42.44,45,42.25a3.1,3.1,0,0,0-.28-0.55,3.32,3.32,0,0,0-.82-0.86,5.63,5.63,0,0,0-2.38-.93v6.56a22,22,0,0,1,3,.88A6.92,6.92,0,0,1,48,50.18c-0.12-.21-0.24-0.42,0,0s0.13,0.22,0,0a6.18,6.18,0,0,1,.7,3.69h0Zm0,0"/></svg>