<svg id="Layer_1" data-name="Layer 1" xmlns="http://www.w3.org/2000/svg" viewBox="0 0 80 80"><defs><style>.cls-1{fill:#00bad5;}</style></defs><title>icons</title><path class="cls-1" d="M16.54,68.39c0.1,0.29-2.59,1.38-2.59,1.38a17.52,17.52,0,0,0-2.91.77c-1.92.37-4.32,1-4.43,1.23s1.26,0.61,1.26.61q2.1-.5,4.15-0.82a3,3,0,0,0,1.67-.1,8.48,8.48,0,0,1,2.23.06,14.57,14.57,0,0,0,2,.31C23.13,73,27.77,74.2,31.3,74.67a23.27,23.27,0,0,0,5.91.3,25.12,25.12,0,0,0,17-7.84,27.68,27.68,0,0,0,5.13-7.69s-0.85-2.66-1.81-3.38c6.35-2.72,10.83-14.57,13.17-26.67A145,145,0,0,0,73.38,5.47s-2.63-1.52-6.4.65c-3.76,2-8.65,7.73-12.71,18.53,0,0,.29-5.74,3-9.64-2.09-.69-5.79,8-8.9,15.42-3.12,7.64-5.65,13.95-5.64,14s0.66-5.63,2.5-9.25c-1.37.85-2.16,2.23-8,13.16-5.76,10.11-8.45,9.26-8.65,9.61-0.14,0-3.68.25-5.31,1.3S18,63.57,18,63.53c1.51,2.82-1.58,4.54-1.46,4.86h0Zm3.22,0.69C32.38,66.37,40.9,61.36,48,52.42,54.89,44,60.36,31.59,64.39,25.62c0.16-.35-1.53,4-4.22,9.44A104.77,104.77,0,0,1,49.58,52.37c-4.19,5.43-8.86,9.73-13.82,12.39s-10.26,3.81-16,4.32h0Zm0,0"/></svg>