<svg id="Layer_2" data-name="Layer 2" xmlns="http://www.w3.org/2000/svg" viewBox="0 0 80 80"><defs><style>.cls-1{fill:#00bad5;}</style></defs><title>icons</title><path class="cls-1" d="M56,33.15c-6.82-8.9-13.3-14.92-13.87-26.72a1.05,1.05,0,0,0-.35-0.81A0.82,0.82,0,0,0,40.48,5a1.21,1.21,0,0,0-1.27,1.27C24.64,22,0,61.95,31,73.39c14,5.21,29.84-1.85,32.61-17.12,1.5-8.21-2.77-16.88-7.63-23.13h0ZM31.11,66c-3.35-2-5.43-5.89-6.48-9.36a16,16,0,0,1-.58-5.21,77.6,77.6,0,0,1,2.66-8.79,16.15,16.15,0,0,0,3.36,6.93c3.7,4,11.21,6.48,13.3,11.56,1.27,3.12-3.7,5.78-5.78,6.48S33,67.15,31.11,66h0Zm0,0"/></svg>