<svg id="Layer_1" data-name="Layer 1" xmlns="http://www.w3.org/2000/svg" xmlns:xlink="http://www.w3.org/1999/xlink" viewBox="0 0 1045 540"><defs><style>.cls-1{fill:none;}.cls-2{fill:#999;}.cls-3{fill:#00bad5;}.cls-4{fill:#666;}.cls-5{clip-path:url(#clip-path);}</style><clipPath id="clip-path"><circle class="cls-1" cx="266.97" cy="248.02" r="124.28"/></clipPath></defs><title>what-is-microfiber</title><circle class="cls-2" cx="768.54" cy="248.02" r="124.28"/><circle class="cls-2" cx="897.09" cy="242.13" r="3.83"/><circle class="cls-2" cx="904.76" cy="253.46" r="3.83"/><circle class="cls-2" cx="897.09" cy="263.61" r="3.83"/><circle class="cls-2" cx="897.09" cy="253.46" r="3.83"/><circle class="cls-2" cx="904.76" cy="267.45" r="3.83"/><circle class="cls-2" cx="904.76" cy="271.28" r="3.83"/><circle class="cls-2" cx="887.87" cy="282.61" r="3.83"/><circle class="cls-2" cx="893.26" cy="287.65" r="3.83"/><circle class="cls-2" cx="893.26" cy="271.58" r="3.83"/><circle class="cls-2" cx="897.09" cy="258.77" r="3.83"/><circle class="cls-2" cx="893.26" cy="275.41" r="3.83"/><circle class="cls-2" cx="908.6" cy="282.62" r="3.83"/><circle class="cls-2" cx="898.23" cy="281.41" r="3.83"/><circle class="cls-2" cx="880.2" cy="305.64" r="3.83"/><circle class="cls-2" cx="884.03" cy="312.85" r="3.83"/><circle class="cls-2" cx="876.36" cy="328.96" r="3.83"/><circle class="cls-2" cx="900.93" cy="291.25" r="3.83"/><circle class="cls-2" cx="884.03" cy="291.25" r="3.83"/><circle class="cls-2" cx="876.36" cy="332.56" r="3.83"/><circle class="cls-2" cx="868.69" cy="325.35" r="3.83"/><circle class="cls-2" cx="868.69" cy="346.78" r="3.83"/><circle class="cls-2" cx="880.2" cy="359.32" r="3.83"/><circle class="cls-2" cx="864.85" cy="363.15" r="3.83"/><circle class="cls-2" cx="917.82" cy="295.09" r="3.83"/><circle class="cls-2" cx="912.43" cy="304.18" r="3.83"/><circle class="cls-2" cx="806.1" cy="368.87" r="3.83"/><circle class="cls-2" cx="803.13" cy="383.84" r="3.83"/><circle class="cls-2" cx="799.3" cy="380.37" r="3.83"/><circle class="cls-2" cx="777.61" cy="386.16" r="3.83"/><circle class="cls-2" cx="791.63" cy="387.68" r="3.83"/><circle class="cls-2" cx="731.57" cy="372.7" r="3.83"/><circle class="cls-2" cx="733.34" cy="380.37" r="3.83"/><circle class="cls-2" cx="727.73" cy="380.01" r="3.83"/><circle class="cls-2" cx="745.32" cy="383.84" r="3.83"/><circle class="cls-2" cx="745.32" cy="376.54" r="3.83"/><circle class="cls-2" cx="739.24" cy="372.7" r="3.83"/><circle class="cls-2" cx="756.17" cy="376.54" r="3.83"/><circle class="cls-2" cx="752.34" cy="383.84" r="3.83"/><circle class="cls-2" cx="763.59" cy="380.37" r="3.83"/><circle class="cls-2" cx="767.42" cy="387.68" r="3.83"/><circle class="cls-2" cx="777.16" cy="380.37" r="3.83"/><circle class="cls-2" cx="777.16" cy="376.54" r="3.83"/><circle class="cls-2" cx="791.63" cy="372.7" r="3.83"/><circle class="cls-2" cx="783.96" cy="374.66" r="3.83"/><circle class="cls-2" cx="787.79" cy="380.37" r="3.83"/><circle class="cls-2" cx="917.82" cy="315.39" r="3.83"/><circle class="cls-2" cx="921.65" cy="309.47" r="3.83"/><circle class="cls-2" cx="924.11" cy="325.35" r="3.83"/><circle class="cls-2" cx="937" cy="317.68" r="3.83"/><circle class="cls-2" cx="927.94" cy="347.44" r="3.83"/><circle class="cls-2" cx="912.43" cy="349.78" r="3.83"/><circle class="cls-2" cx="912.61" cy="365.03" r="3.83"/><circle class="cls-2" cx="922.74" cy="380.37" r="3.83"/><circle class="cls-2" cx="925.49" cy="332.33" r="3.83" transform="translate(-12.74 37.87) rotate(-2.33)"/><circle class="cls-2" cx="917.82" cy="342.94" r="3.83" transform="translate(-13.17 37.57) rotate(-2.33)"/><circle class="cls-2" cx="922.8" cy="356.17" r="3.83" transform="translate(-13.71 37.78) rotate(-2.33)"/><circle class="cls-2" cx="924.11" cy="368.4" r="3.83" transform="translate(-14.2 37.84) rotate(-2.33)"/><circle class="cls-2" cx="933.81" cy="366.99" r="3.83" transform="translate(-14.14 38.24) rotate(-2.33)"/><circle class="cls-2" cx="916.45" cy="368.71" r="3.83" transform="translate(-14.22 37.53) rotate(-2.33)"/><circle class="cls-2" cx="902.07" cy="353.99" r="3.83"/><circle class="cls-2" cx="908.6" cy="371.75" r="3.83"/><circle class="cls-2" cx="912.43" cy="375.59" r="3.83"/><circle class="cls-2" cx="917.82" cy="332.56" r="3.83"/><circle class="cls-2" cx="917.82" cy="342.79" r="3.83"/><circle class="cls-2" cx="912.43" cy="321.52" r="3.83"/><circle class="cls-2" cx="904.76" cy="328.73" r="3.83"/><circle class="cls-2" cx="904.76" cy="340.23" r="3.83"/><circle class="cls-2" cx="891.7" cy="350.61" r="3.83"/><circle class="cls-2" cx="893.26" cy="365.03" r="3.83"/><circle class="cls-2" cx="880.12" cy="366.99" r="3.83"/><circle class="cls-2" cx="897.09" cy="372.7" r="3.83"/><circle class="cls-2" cx="898.23" cy="387.68" r="3.83"/><circle class="cls-2" cx="887.87" cy="378.16" r="3.83"/><circle class="cls-2" cx="884.03" cy="340.23" r="3.83"/><circle class="cls-2" cx="876.36" cy="345.94" r="3.83"/><circle class="cls-2" cx="857.18" cy="343.61" r="3.83"/><circle class="cls-2" cx="897.09" cy="299.35" r="3.83"/><circle class="cls-2" cx="908.6" cy="309.99" r="3.83"/><circle class="cls-2" cx="900.93" cy="324.89" r="3.83"/><circle class="cls-2" cx="897.09" cy="307.72" r="3.83"/><circle class="cls-2" cx="904.76" cy="301.52" r="3.83"/><circle class="cls-2" cx="887.87" cy="297.92" r="3.83"/><circle class="cls-2" cx="880.2" cy="312.85" r="3.83"/><circle class="cls-2" cx="900.93" cy="311.56" r="3.83"/><circle class="cls-2" cx="891.7" cy="323.06" r="3.83"/><circle class="cls-2" cx="887.87" cy="319.23" r="3.83"/><circle class="cls-2" cx="878.64" cy="325.78" r="3.83"/><circle class="cls-2" cx="876.36" cy="315.16" r="3.83"/><circle class="cls-2" cx="884.03" cy="336.4" r="3.83"/><circle class="cls-2" cx="897.09" cy="340.23" r="3.83"/><circle class="cls-2" cx="861.02" cy="328.73" r="3.83"/><circle class="cls-2" cx="849.51" cy="363.15" r="3.83"/><circle class="cls-2" cx="826.58" cy="357.82" r="3.83"/><circle class="cls-2" cx="822.74" cy="366.99" r="3.83"/><circle class="cls-2" cx="815.07" cy="370.82" r="3.83"/><circle class="cls-2" cx="815.07" cy="382.33" r="3.83"/><circle class="cls-2" cx="830.41" cy="365.03" r="3.83"/><circle class="cls-2" cx="834.17" cy="374.66" r="3.83"/><circle class="cls-2" cx="868.69" cy="339.77" r="3.83"/><circle class="cls-2" cx="864.86" cy="353.99" r="3.83"/><circle class="cls-2" cx="872.53" cy="357.82" r="3.83"/><circle class="cls-2" cx="872.53" cy="374.66" r="3.83"/><circle class="cls-2" cx="872.53" cy="383.84" r="3.83"/><circle class="cls-2" cx="857.18" cy="374.66" r="3.83"/><circle class="cls-2" cx="849.51" cy="343.61" r="3.83"/><circle class="cls-2" cx="709.86" cy="363.15" r="3.83"/><circle class="cls-2" cx="709.86" cy="370.82" r="3.83"/><circle class="cls-2" cx="717.53" cy="372.7" r="3.83"/><circle class="cls-2" cx="721.37" cy="380.01" r="3.83"/><circle class="cls-2" cx="700.6" cy="359.78" r="3.83"/><circle class="cls-2" cx="706.03" cy="374.66" r="3.83"/><circle class="cls-2" cx="717.53" cy="380.01" r="3.83"/><circle class="cls-2" cx="857.18" cy="352.34" r="3.83"/><circle class="cls-2" cx="853.35" cy="363.15" r="3.83"/><circle class="cls-2" cx="841.84" cy="366.99" r="3.83"/><circle class="cls-2" cx="853.35" cy="374.66" r="3.83"/><circle class="cls-2" cx="857.18" cy="386.16" r="3.83"/><circle class="cls-2" cx="836.13" cy="382" r="3.83"/><circle class="cls-2" cx="824.62" cy="382" r="3.83"/><circle class="cls-2" cx="838.01" cy="357.82" r="3.83"/><circle class="cls-2" cx="845.68" cy="353.99" r="3.83"/><path class="cls-2" d="M688.78,90a14.09,14.09,0,0,1-5.62.94C675.6,91,671.7,86.28,671.7,80c0-7.47,5.33-11.62,11.95-11.62a12.91,12.91,0,0,1,5.39,1l-1,3.93a10.67,10.67,0,0,0-4.16-.81c-3.93,0-7,2.37-7,7.24,0,4.38,2.6,7.14,7,7.14a12.35,12.35,0,0,0,4.12-.72Z"/><path class="cls-2" d="M706.93,82.54c0,5.81-4.12,8.48-8.38,8.48-4.64,0-8.22-3.05-8.22-8.18s3.38-8.41,8.47-8.41A7.72,7.72,0,0,1,706.93,82.54Zm-11.5.16c0,2.73,1.14,4.77,3.25,4.77,1.91,0,3.15-1.92,3.15-4.77,0-2.37-.91-4.77-3.15-4.77S695.44,80.37,695.44,82.7Z"/><path class="cls-2" d="M715.5,70.23v4.55H719v3.64H715.5v5.75c0,1.92.45,2.79,1.95,2.79a8.06,8.06,0,0,0,1.46-.13l0,3.73a9.68,9.68,0,0,1-3.21.42,5.13,5.13,0,0,1-3.7-1.36c-0.91-.94-1.36-2.47-1.36-4.71V78.42h-2.11V74.78h2.11V71.34Z"/><path class="cls-2" d="M727.41,70.23v4.55h3.54v3.64h-3.54v5.75c0,1.92.45,2.79,1.95,2.79a8,8,0,0,0,1.46-.13l0,3.73a9.69,9.69,0,0,1-3.22.42,5.14,5.14,0,0,1-3.7-1.36c-0.91-.94-1.36-2.47-1.36-4.71V78.42h-2.11V74.78h2.11V71.34Z"/><path class="cls-2" d="M749.33,82.54c0,5.81-4.12,8.48-8.38,8.48-4.64,0-8.22-3.05-8.22-8.18s3.38-8.41,8.47-8.41A7.72,7.72,0,0,1,749.33,82.54Zm-11.5.16c0,2.73,1.14,4.77,3.25,4.77,1.91,0,3.15-1.92,3.15-4.77,0-2.37-.91-4.77-3.15-4.77S737.83,80.37,737.83,82.7Z"/><path class="cls-2" d="M752.37,79.85c0-2-.06-3.67-0.13-5.07h4.28L756.75,77h0.1a5.81,5.81,0,0,1,4.9-2.53c3.25,0,5.68,2.14,5.68,6.82v9.42H762.5v-8.8c0-2-.72-3.44-2.5-3.44a2.63,2.63,0,0,0-2.5,1.85,3.38,3.38,0,0,0-.2,1.23v9.16h-4.94V79.85Z"/><path class="cls-2" d="M784.67,68.77H798v4.06h-8.41v5h7.86v4h-7.86v8.8h-5V68.77Z"/><path class="cls-2" d="M806.06,70.36a2.48,2.48,0,0,1-2.66,2.47,2.49,2.49,0,1,1,0-5A2.47,2.47,0,0,1,806.06,70.36ZM801,90.66V74.78h4.94V90.66H801Z"/><path class="cls-2" d="M809.73,90.66c0.07-1,.13-3,0.13-4.74V67.6h4.94v9.06h0.07a5.59,5.59,0,0,1,4.81-2.24c3.8,0,6.59,3.15,6.56,8,0,5.72-3.64,8.57-7.27,8.57a5.27,5.27,0,0,1-4.77-2.57h-0.07l-0.2,2.21h-4.19Zm5.07-6.75a3.61,3.61,0,0,0,.1.88,3,3,0,0,0,2.89,2.34c2.11,0,3.41-1.62,3.41-4.48,0-2.47-1.1-4.42-3.41-4.42a3.06,3.06,0,0,0-2.89,2.44,4.08,4.08,0,0,0-.1.91V83.9Z"/><path class="cls-2" d="M833.17,84.3c0.16,2,2.18,3,4.48,3a14,14,0,0,0,4.38-.65L842.68,90a15.69,15.69,0,0,1-5.75,1c-5.39,0-8.47-3.12-8.47-8.09,0-4,2.5-8.47,8-8.47,5.13,0,7.08,4,7.08,7.92a11.72,11.72,0,0,1-.16,1.95H833.17ZM839,80.92c0-1.2-.52-3.21-2.79-3.21-2.08,0-2.92,1.88-3.05,3.21H839Z"/><path class="cls-2" d="M846.51,80c0-2.34-.07-3.86-0.13-5.23h4.25l0.16,2.92h0.13a4.66,4.66,0,0,1,4.29-3.28,5.14,5.14,0,0,1,1,.06v4.64a7.15,7.15,0,0,0-1.33-.13,3.17,3.17,0,0,0-3.38,2.5,5.81,5.81,0,0,0-.1,1.1v8.05h-4.93V80Z"/><path class="cls-3" d="M203.18,78.45c-0.1-2.63-.2-5.81-0.2-9h-0.1c-0.68,2.79-1.59,5.91-2.44,8.47l-2.66,8.54h-3.86L191.59,78c-0.71-2.57-1.46-5.68-2-8.54h-0.07c-0.13,3-.23,6.33-0.39,9.06l-0.39,8.31h-4.58l1.4-21.89h6.59l2.14,7.31c0.68,2.53,1.36,5.26,1.85,7.83h0.1c0.62-2.53,1.36-5.42,2.08-7.86l2.34-7.27h6.46l1.2,21.89H203.5Z"/><path class="cls-3" d="M217.26,66.53A2.48,2.48,0,0,1,214.6,69a2.49,2.49,0,1,1,0-5A2.48,2.48,0,0,1,217.26,66.53Zm-5.1,20.29V70.94h4.94V86.82h-4.94Z"/><path class="cls-3" d="M233,86.43a12,12,0,0,1-4.42.72c-5.13,0-8.41-3.12-8.41-8.12,0-4.64,3.18-8.44,9.09-8.44a11.46,11.46,0,0,1,3.77.62l-0.78,3.67a6.75,6.75,0,0,0-2.76-.49,4.45,4.45,0,0,0,.1,8.9,7.61,7.61,0,0,0,2.82-.49Z"/><path class="cls-3" d="M235.7,76.17c0-2.34-.06-3.86-0.13-5.23h4.25L240,73.87h0.13a4.66,4.66,0,0,1,4.29-3.28,5.14,5.14,0,0,1,1,.06V75.3a7.14,7.14,0,0,0-1.33-.13,3.17,3.17,0,0,0-3.38,2.5,5.81,5.81,0,0,0-.1,1.1v8.05H235.7V76.17Z"/><path class="cls-3" d="M263.46,78.71c0,5.81-4.12,8.48-8.38,8.48-4.64,0-8.22-3.05-8.22-8.18s3.38-8.41,8.47-8.41A7.72,7.72,0,0,1,263.46,78.71Zm-11.5.16c0,2.73,1.14,4.77,3.25,4.77,1.92,0,3.15-1.92,3.15-4.77,0-2.37-.91-4.77-3.15-4.77S252,76.53,252,78.87Z"/><path class="cls-3" d="M273.22,64.94H286.6V69h-8.41v5H286v4h-7.86v8.8h-5V64.94Z"/><path class="cls-3" d="M294.62,66.53A2.48,2.48,0,0,1,292,69a2.49,2.49,0,1,1,0-5A2.48,2.48,0,0,1,294.62,66.53Zm-5.1,20.29V70.94h4.94V86.82h-4.94Z"/><path class="cls-3" d="M298.28,86.82c0.07-1,.13-3,0.13-4.74V63.77h4.94v9.06h0.07a5.59,5.59,0,0,1,4.81-2.24c3.8,0,6.59,3.15,6.56,8,0,5.72-3.64,8.57-7.27,8.57a5.27,5.27,0,0,1-4.77-2.57h-0.07l-0.19,2.21h-4.19Zm5.07-6.75a3.61,3.61,0,0,0,.1.88,3,3,0,0,0,2.89,2.34c2.11,0,3.41-1.62,3.41-4.48,0-2.47-1.1-4.42-3.41-4.42a3.06,3.06,0,0,0-2.89,2.44,4.08,4.08,0,0,0-.1.91v2.34Z"/><path class="cls-3" d="M321.72,80.46c0.16,2,2.18,3,4.48,3a14,14,0,0,0,4.38-.65l0.65,3.35a15.68,15.68,0,0,1-5.75,1c-5.39,0-8.47-3.12-8.47-8.09,0-4,2.5-8.47,8-8.47,5.13,0,7.08,4,7.08,7.92a11.69,11.69,0,0,1-.16,1.95H321.72Zm5.81-3.38c0-1.2-.52-3.21-2.79-3.21-2.08,0-2.92,1.88-3.05,3.21h5.84Z"/><path class="cls-3" d="M335.06,76.17c0-2.34-.06-3.86-0.13-5.23h4.25l0.16,2.92h0.13a4.66,4.66,0,0,1,4.29-3.28,5.14,5.14,0,0,1,1,.06V75.3a7.14,7.14,0,0,0-1.33-.13,3.17,3.17,0,0,0-3.38,2.5,5.81,5.81,0,0,0-.1,1.1v8.05h-4.94V76.17Z"/><path class="cls-4" d="M171.54,426.32v6.1h7.05v-6.1h1.9V440.9h-1.9v-6.84h-7.05v6.84h-1.88V426.32h1.88Z"/><path class="cls-4" d="M193.17,435.58c0,3.87-2.68,5.56-5.21,5.56-2.83,0-5-2.08-5-5.39,0-3.5,2.29-5.56,5.19-5.56S193.17,432.38,193.17,435.58Zm-8.31.11c0,2.29,1.32,4,3.18,4s3.18-1.71,3.18-4.07c0-1.77-.89-4-3.14-4S184.87,433.69,184.87,435.68Z"/><path class="cls-4" d="M195.58,425.54h1.9V440.9h-1.9V425.54Z"/><path class="cls-4" d="M209.73,425.54v12.65c0,0.93,0,2,.09,2.7h-1.71L208,439.08h0a3.87,3.87,0,0,1-3.57,2.06c-2.53,0-4.48-2.14-4.48-5.32,0-3.48,2.14-5.62,4.69-5.62a3.5,3.5,0,0,1,3.16,1.6h0v-6.25h1.9Zm-1.9,9.15a3.34,3.34,0,0,0-.09-0.8,2.8,2.8,0,0,0-2.75-2.21c-2,0-3.14,1.73-3.14,4,0,2.12,1,3.87,3.09,3.87a2.86,2.86,0,0,0,2.79-2.27,3.3,3.3,0,0,0,.09-0.82v-1.82Z"/><path class="cls-4" d="M226.24,438c0,1.08,0,2,.09,2.85h-1.69l-0.11-1.71h0a3.94,3.94,0,0,1-3.46,1.95c-1.64,0-3.61-.91-3.61-4.59v-6.12h1.9v5.8c0,2,.61,3.33,2.34,3.33a2.75,2.75,0,0,0,2.51-1.73,2.78,2.78,0,0,0,.17-1v-6.42h1.9V438Z"/><path class="cls-4" d="M229.41,433.85c0-1.34,0-2.42-.09-3.42H231l0.09,1.79h0a4.12,4.12,0,0,1,3.72-2c2.53,0,4.43,2.14,4.43,5.32,0,3.76-2.29,5.62-4.76,5.62a3.67,3.67,0,0,1-3.22-1.64h0v5.69h-1.88V433.85Zm1.88,2.79a4.3,4.3,0,0,0,.09.78,2.94,2.94,0,0,0,2.86,2.23c2,0,3.18-1.64,3.18-4,0-2.1-1.1-3.89-3.11-3.89a3,3,0,0,0-2.88,2.36,3.12,3.12,0,0,0-.13.78v1.8Z"/><path class="cls-4" d="M248.6,427.42v3h2.73v1.45H248.6v5.64c0,1.3.37,2,1.43,2a4.21,4.21,0,0,0,1.1-.13l0.09,1.43a4.66,4.66,0,0,1-1.69.26,2.64,2.64,0,0,1-2.06-.8,3.88,3.88,0,0,1-.74-2.72v-5.71h-1.62v-1.45h1.62v-2.51Z"/><path class="cls-4" d="M262.81,435.58c0,3.87-2.68,5.56-5.21,5.56-2.83,0-5-2.08-5-5.39,0-3.5,2.29-5.56,5.19-5.56S262.81,432.38,262.81,435.58Zm-8.31.11c0,2.29,1.32,4,3.18,4s3.18-1.71,3.18-4.07c0-1.77-.89-4-3.14-4S254.51,433.69,254.51,435.68Z"/><path class="cls-4" d="M278.33,426.84v1.26l-6.12,12.8h-2l6.1-12.44v0h-6.88v-1.58h8.87Z"/><path class="cls-4" d="M287.79,427.42v3h2.73v1.45h-2.73v5.64c0,1.3.37,2,1.43,2a4.21,4.21,0,0,0,1.1-.13l0.09,1.43a4.66,4.66,0,0,1-1.69.26,2.64,2.64,0,0,1-2.06-.8,3.88,3.88,0,0,1-.74-2.72v-5.71h-1.62v-1.45h1.62v-2.51Z"/><path class="cls-4" d="M294.78,427.49a1.18,1.18,0,0,1-2.36,0,1.16,1.16,0,0,1,1.19-1.19A1.13,1.13,0,0,1,294.78,427.49Zm-2.12,13.41V430.43h1.9V440.9h-1.9Z"/><path class="cls-4" d="M297.73,433.26c0-1.08,0-2-.09-2.83h1.67l0.09,1.69h0.07a3.61,3.61,0,0,1,3.29-1.92,3.09,3.09,0,0,1,3,2.1h0a4.32,4.32,0,0,1,1.17-1.36,3.57,3.57,0,0,1,2.31-.73c1.38,0,3.44.91,3.44,4.54v6.16h-1.86V435c0-2-.74-3.22-2.27-3.22a2.46,2.46,0,0,0-2.25,1.73,3.13,3.13,0,0,0-.15,1v6.47h-1.86v-6.27c0-1.66-.74-2.88-2.18-2.88a2.6,2.6,0,0,0-2.36,1.9,2.64,2.64,0,0,0-.15.93v6.32h-1.86v-7.63Z"/><path class="cls-4" d="M316.83,436a3.35,3.35,0,0,0,3.59,3.64,6.88,6.88,0,0,0,2.9-.54l0.32,1.36a8.48,8.48,0,0,1-3.48.65c-3.22,0-5.15-2.12-5.15-5.28s1.86-5.64,4.91-5.64c3.42,0,4.33,3,4.33,4.93a7.23,7.23,0,0,1-.07.89h-7.35Zm5.58-1.36c0-1.21-.5-3.09-2.64-3.09-1.92,0-2.77,1.78-2.92,3.09h5.56Z"/><path class="cls-4" d="M326.36,439a5,5,0,0,0,2.51.76c1.38,0,2-.69,2-1.56s-0.54-1.41-1.95-1.92c-1.88-.67-2.77-1.71-2.77-3,0-1.69,1.36-3.07,3.61-3.07a5.24,5.24,0,0,1,2.57.65l-0.48,1.38a4.08,4.08,0,0,0-2.14-.61A1.53,1.53,0,0,0,328,433c0,0.86.63,1.25,2,1.77,1.82,0.69,2.75,1.6,2.75,3.16,0,1.84-1.43,3.14-3.92,3.14a6,6,0,0,1-2.94-.71Z"/><path class="cls-4" d="M342.07,427.42v3h2.73v1.45h-2.73v5.64c0,1.3.37,2,1.43,2a4.21,4.21,0,0,0,1.1-.13l0.09,1.43a4.66,4.66,0,0,1-1.69.26,2.64,2.64,0,0,1-2.06-.8,3.88,3.88,0,0,1-.74-2.72v-5.71h-1.62v-1.45h1.62v-2.51Z"/><path class="cls-4" d="M346.94,425.54h1.9v6.53h0a3.53,3.53,0,0,1,1.36-1.34,3.92,3.92,0,0,1,1.95-.54c1.41,0,3.66.86,3.66,4.48v6.23h-1.9v-6c0-1.69-.63-3.12-2.42-3.12a2.74,2.74,0,0,0-2.55,1.9,2.3,2.3,0,0,0-.13.91v6.32h-1.9V425.54Z"/><path class="cls-4" d="M364.75,440.9l-0.15-1.32h-0.07a3.9,3.9,0,0,1-3.2,1.56,3,3,0,0,1-3.2-3c0-2.53,2.25-3.92,6.29-3.89V434A2.16,2.16,0,0,0,362,431.6a5.22,5.22,0,0,0-2.72.78l-0.43-1.25a6.51,6.51,0,0,1,3.44-.93c3.2,0,4,2.18,4,4.28v3.92a14.68,14.68,0,0,0,.17,2.51h-1.73Zm-0.28-5.34c-2.08,0-4.43.32-4.43,2.36a1.69,1.69,0,0,0,1.8,1.82,2.6,2.6,0,0,0,2.53-1.75,2,2,0,0,0,.11-0.61v-1.82Z"/><path class="cls-4" d="M369.38,433.26c0-1.08,0-2-.09-2.83H371l0.11,1.73h0a3.85,3.85,0,0,1,3.46-2c1.45,0,3.7.86,3.7,4.46v6.25h-1.9v-6c0-1.69-.63-3.09-2.42-3.09a2.7,2.7,0,0,0-2.55,1.95,2.74,2.74,0,0,0-.13.89v6.29h-1.9v-7.63Z"/><path class="cls-4" d="M141.33,453.46a1.18,1.18,0,0,1-2.36,0,1.16,1.16,0,0,1,1.19-1.19A1.13,1.13,0,0,1,141.33,453.46Zm-2.12,13.41V456.4h1.9v10.47h-1.9Z"/><path class="cls-4" d="M146.56,453.39v3h2.73v1.45h-2.73v5.64c0,1.3.37,2,1.43,2a4.21,4.21,0,0,0,1.1-.13l0.09,1.43a4.66,4.66,0,0,1-1.69.26,2.64,2.64,0,0,1-2.06-.8,3.88,3.88,0,0,1-.74-2.72v-5.71h-1.62V456.4h1.62v-2.51Z"/><path class="cls-4" d="M151.17,464.92a5,5,0,0,0,2.51.76c1.38,0,2-.69,2-1.56s-0.54-1.41-1.95-1.92c-1.88-.67-2.77-1.71-2.77-3,0-1.69,1.36-3.07,3.61-3.07a5.24,5.24,0,0,1,2.57.65l-0.48,1.38a4.08,4.08,0,0,0-2.14-.61,1.53,1.53,0,0,0-1.75,1.43c0,0.86.63,1.25,2,1.77,1.82,0.69,2.75,1.6,2.75,3.16,0,1.84-1.43,3.14-3.92,3.14a6,6,0,0,1-2.94-.71Z"/><path class="cls-4" d="M165.35,456.4l1.38,5.32c0.3,1.17.58,2.25,0.78,3.33h0.07c0.24-1.06.58-2.18,0.93-3.31l1.71-5.34h1.6l1.62,5.23c0.39,1.25.69,2.36,0.93,3.42h0.07a31.66,31.66,0,0,1,.8-3.4l1.49-5.26h1.88l-3.37,10.47H173.5l-1.6-5a35.08,35.08,0,0,1-.93-3.44h0a30.8,30.8,0,0,1-1,3.46l-1.69,5h-1.73L163.4,456.4h1.95Z"/><path class="cls-4" d="M181.36,462a3.35,3.35,0,0,0,3.59,3.64,6.88,6.88,0,0,0,2.9-.54l0.32,1.36a8.48,8.48,0,0,1-3.48.65c-3.22,0-5.15-2.12-5.15-5.28s1.86-5.64,4.91-5.64c3.42,0,4.33,3,4.33,4.93a7.23,7.23,0,0,1-.07.89h-7.35Zm5.58-1.36c0-1.21-.5-3.09-2.64-3.09-1.92,0-2.77,1.78-2.92,3.09h5.56Z"/><path class="cls-4" d="M193.26,453.46a1.18,1.18,0,0,1-2.36,0,1.16,1.16,0,0,1,1.19-1.19A1.13,1.13,0,0,1,193.26,453.46Zm-2.12,13.41V456.4H193v10.47h-1.9Z"/><path class="cls-4" d="M205.23,456.4c0,0.76-.09,1.6-0.09,2.88v6.08c0,2.4-.48,3.87-1.49,4.78a5.55,5.55,0,0,1-3.81,1.26,6.76,6.76,0,0,1-3.48-.86l0.48-1.45a5.91,5.91,0,0,0,3.07.82c1.95,0,3.37-1,3.37-3.65v-1.17h0a3.74,3.74,0,0,1-3.33,1.75c-2.6,0-4.46-2.2-4.46-5.1,0-3.55,2.32-5.56,4.72-5.56a3.48,3.48,0,0,1,3.27,1.82h0l0.09-1.58h1.67Zm-2,4.13a2.78,2.78,0,0,0-2.77-2.88c-1.82,0-3.11,1.54-3.11,4,0,2.05,1,3.76,3.09,3.76a2.78,2.78,0,0,0,2.64-1.95,3.33,3.33,0,0,0,.15-1v-1.88Z"/><path class="cls-4" d="M208.31,451.51h1.9V458h0a3.53,3.53,0,0,1,1.36-1.34,3.92,3.92,0,0,1,1.95-.54c1.41,0,3.66.86,3.66,4.48v6.23h-1.9v-6c0-1.69-.63-3.12-2.42-3.12a2.74,2.74,0,0,0-2.55,1.9,2.3,2.3,0,0,0-.13.91v6.32h-1.9V451.51Z"/><path class="cls-4" d="M222.52,453.39v3h2.73v1.45h-2.73v5.64c0,1.3.37,2,1.43,2a4.21,4.21,0,0,0,1.1-.13l0.09,1.43a4.66,4.66,0,0,1-1.69.26,2.64,2.64,0,0,1-2.06-.8,3.88,3.88,0,0,1-.74-2.72v-5.71H219V456.4h1.62v-2.51Z"/><path class="cls-4" d="M234.1,453.46a1.18,1.18,0,0,1-2.36,0,1.16,1.16,0,0,1,1.19-1.19A1.13,1.13,0,0,1,234.1,453.46ZM232,466.87V456.4h1.9v10.47H232Z"/><path class="cls-4" d="M237,459.23c0-1.08,0-2-.09-2.83h1.69l0.11,1.73h0a3.85,3.85,0,0,1,3.46-2c1.45,0,3.7.86,3.7,4.46v6.25h-1.9v-6c0-1.69-.63-3.09-2.42-3.09a2.7,2.7,0,0,0-2.55,1.95,2.74,2.74,0,0,0-.13.89v6.29H237v-7.63Z"/><path class="cls-4" d="M262.68,451.51v12.65c0,0.93,0,2,.09,2.7h-1.71L261,465.05h0a3.87,3.87,0,0,1-3.57,2.06c-2.53,0-4.48-2.14-4.48-5.32,0-3.48,2.14-5.62,4.69-5.62a3.5,3.5,0,0,1,3.16,1.6h0v-6.25h1.9Zm-1.9,9.15a3.34,3.34,0,0,0-.09-0.8,2.8,2.8,0,0,0-2.75-2.21c-2,0-3.14,1.73-3.14,4,0,2.12,1,3.87,3.09,3.87a2.86,2.86,0,0,0,2.79-2.27,3.3,3.3,0,0,0,.09-0.82v-1.82Z"/><path class="cls-4" d="M268,453.46a1.18,1.18,0,0,1-2.36,0,1.16,1.16,0,0,1,1.19-1.19A1.13,1.13,0,0,1,268,453.46Zm-2.12,13.41V456.4h1.9v10.47h-1.9Z"/><path class="cls-4" d="M270.91,459.66c0-1.23,0-2.29-.09-3.27h1.67l0.07,2.06h0.09a3.14,3.14,0,0,1,2.9-2.29,2,2,0,0,1,.54.07V458a2.82,2.82,0,0,0-.65-0.07,2.67,2.67,0,0,0-2.55,2.44,5.36,5.36,0,0,0-.09.89v5.58h-1.88v-7.2Z"/><path class="cls-4" d="M280.8,453.39v3h2.73v1.45H280.8v5.64c0,1.3.37,2,1.43,2a4.21,4.21,0,0,0,1.1-.13l0.09,1.43a4.66,4.66,0,0,1-1.69.26,2.64,2.64,0,0,1-2.06-.8,3.88,3.88,0,0,1-.74-2.72v-5.71h-1.62V456.4h1.62v-2.51Z"/><path class="cls-4" d="M284.37,469.53a31.15,31.15,0,0,0,1.3-5.17l2.12-.21a26.38,26.38,0,0,1-2.06,5.26Z"/><path class="cls-4" d="M304.15,461.55c0,3.87-2.68,5.56-5.21,5.56-2.83,0-5-2.08-5-5.39,0-3.5,2.29-5.56,5.19-5.56S304.15,458.35,304.15,461.55Zm-8.31.11c0,2.29,1.32,4,3.18,4s3.18-1.71,3.18-4.07c0-1.77-.89-4-3.14-4S295.84,459.66,295.84,461.66Z"/><path class="cls-4" d="M308.68,453.46a1.18,1.18,0,0,1-2.36,0,1.16,1.16,0,0,1,1.19-1.19A1.13,1.13,0,0,1,308.68,453.46Zm-2.12,13.41V456.4h1.9v10.47h-1.9Z"/><path class="cls-4" d="M311.62,451.51h1.9v15.36h-1.9V451.51Z"/><path class="cls-4" d="M327.11,466.87L327,465.55H326.9a3.9,3.9,0,0,1-3.2,1.56,3,3,0,0,1-3.2-3c0-2.53,2.25-3.92,6.29-3.89V460a2.16,2.16,0,0,0-2.38-2.42,5.22,5.22,0,0,0-2.73.78l-0.43-1.25a6.5,6.5,0,0,1,3.44-.93c3.2,0,4,2.18,4,4.28v3.92a14.68,14.68,0,0,0,.17,2.51h-1.73Zm-0.28-5.34c-2.08,0-4.43.32-4.43,2.36a1.69,1.69,0,0,0,1.8,1.82,2.6,2.6,0,0,0,2.53-1.75,2,2,0,0,0,.11-0.61v-1.82Z"/><path class="cls-4" d="M331.75,459.23c0-1.08,0-2-.09-2.83h1.69l0.11,1.73h0a3.85,3.85,0,0,1,3.46-2c1.45,0,3.7.86,3.7,4.46v6.25h-1.9v-6c0-1.69-.63-3.09-2.42-3.09a2.7,2.7,0,0,0-2.55,1.95,2.74,2.74,0,0,0-.13.89v6.29h-1.9v-7.63Z"/><path class="cls-4" d="M352.8,451.51v12.65c0,0.93,0,2,.09,2.7h-1.71l-0.09-1.82h0a3.87,3.87,0,0,1-3.57,2.06c-2.53,0-4.48-2.14-4.48-5.32,0-3.48,2.14-5.62,4.69-5.62a3.5,3.5,0,0,1,3.16,1.6h0v-6.25h1.9Zm-1.9,9.15a3.34,3.34,0,0,0-.09-0.8,2.8,2.8,0,0,0-2.75-2.21c-2,0-3.14,1.73-3.14,4,0,2.12,1,3.87,3.09,3.87a2.86,2.86,0,0,0,2.79-2.27,3.3,3.3,0,0,0,.09-0.82v-1.82Z"/><path class="cls-4" d="M360.55,451.51h1.9v15.36h-1.9V451.51Z"/><path class="cls-4" d="M367.78,453.46a1.18,1.18,0,0,1-2.36,0,1.16,1.16,0,0,1,1.19-1.19A1.13,1.13,0,0,1,367.78,453.46Zm-2.12,13.41V456.4h1.9v10.47h-1.9Z"/><path class="cls-4" d="M377.86,465.25h0a3.73,3.73,0,0,1-3.42,1.86c-2.44,0-4.43-2.12-4.43-5.3,0-3.92,2.53-5.64,4.74-5.64a3.44,3.44,0,0,1,3.22,1.82h0L378,456.4h1.8c0,0.89-.07,1.79-0.07,2.88v11.88h-1.9v-5.91Zm0-4.61a3.23,3.23,0,0,0-.09-0.8,2.78,2.78,0,0,0-2.72-2.16c-2,0-3.16,1.67-3.16,4,0,2.08,1,3.89,3.09,3.89a2.83,2.83,0,0,0,2.73-2.08,3.2,3.2,0,0,0,.15-0.91v-2Z"/><path class="cls-4" d="M391.67,464c0,1.08,0,2,.09,2.85h-1.69L390,465.16h0a3.94,3.94,0,0,1-3.46,1.95c-1.64,0-3.61-.91-3.61-4.59V456.4h1.9v5.8c0,2,.61,3.33,2.34,3.33a2.75,2.75,0,0,0,2.51-1.73,2.78,2.78,0,0,0,.17-1V456.4h1.9V464Z"/><path class="cls-4" d="M397,453.46a1.18,1.18,0,0,1-2.36,0,1.16,1.16,0,0,1,1.19-1.19A1.13,1.13,0,0,1,397,453.46Zm-2.12,13.41V456.4h1.9v10.47h-1.9Z"/><path class="cls-4" d="M408.94,451.51v12.65c0,0.93,0,2,.09,2.7h-1.71l-0.09-1.82h0a3.87,3.87,0,0,1-3.57,2.06c-2.53,0-4.48-2.14-4.48-5.32,0-3.48,2.14-5.62,4.69-5.62a3.5,3.5,0,0,1,3.16,1.6h0v-6.25h1.9Zm-1.9,9.15a3.34,3.34,0,0,0-.09-0.8,2.8,2.8,0,0,0-2.75-2.21c-2,0-3.14,1.73-3.14,4,0,2.12,1,3.87,3.09,3.87a2.86,2.86,0,0,0,2.79-2.27,3.3,3.3,0,0,0,.09-0.82v-1.82Z"/><path class="cls-4" d="M411.43,465.74a1.28,1.28,0,0,1,1.3-1.36A1.36,1.36,0,1,1,411.43,465.74Z"/><path class="cls-4" d="M683.6,426.51a19.52,19.52,0,0,1,3.61-.3c2,0,3.31.37,4.22,1.19a3.63,3.63,0,0,1,1.15,2.77,3.83,3.83,0,0,1-2.75,3.72V434A3.63,3.63,0,0,1,692,436.9a23.31,23.31,0,0,0,1.13,4h-1.95a18.83,18.83,0,0,1-1-3.48c-0.43-2-1.21-2.77-2.92-2.83h-1.77v6.32H683.6V426.51Zm1.88,6.64h1.92c2,0,3.29-1.1,3.29-2.77,0-1.88-1.36-2.7-3.35-2.72a7.76,7.76,0,0,0-1.86.17v5.32Z"/><path class="cls-4" d="M696.33,436a3.35,3.35,0,0,0,3.59,3.64,6.88,6.88,0,0,0,2.9-.54l0.32,1.36a8.47,8.47,0,0,1-3.48.65c-3.22,0-5.15-2.12-5.15-5.28s1.86-5.64,4.91-5.64c3.42,0,4.33,3,4.33,4.93a7.23,7.23,0,0,1-.07.89h-7.35Zm5.58-1.36c0-1.21-.5-3.09-2.64-3.09-1.92,0-2.77,1.78-2.92,3.09h5.56Z"/><path class="cls-4" d="M715.13,430.43c0,0.76-.09,1.6-0.09,2.88v6.08c0,2.4-.48,3.87-1.49,4.78a5.55,5.55,0,0,1-3.81,1.26,6.76,6.76,0,0,1-3.48-.86l0.48-1.45a5.91,5.91,0,0,0,3.07.82c1.95,0,3.37-1,3.37-3.65V439.1h0a3.74,3.74,0,0,1-3.33,1.75c-2.6,0-4.46-2.2-4.46-5.1,0-3.55,2.31-5.56,4.71-5.56a3.48,3.48,0,0,1,3.27,1.82h0l0.09-1.58h1.67Zm-2,4.13a2.78,2.78,0,0,0-2.77-2.88c-1.82,0-3.11,1.54-3.11,4,0,2.05,1,3.76,3.09,3.76a2.78,2.78,0,0,0,2.64-1.95,3.28,3.28,0,0,0,.15-1v-1.88Z"/><path class="cls-4" d="M727,438c0,1.08,0,2,.09,2.85h-1.69l-0.11-1.71h0a3.94,3.94,0,0,1-3.46,1.95c-1.64,0-3.61-.91-3.61-4.59v-6.12H720v5.8c0,2,.61,3.33,2.34,3.33a2.75,2.75,0,0,0,2.51-1.73,2.8,2.8,0,0,0,.17-1v-6.42H727V438Z"/><path class="cls-4" d="M730.13,425.54H732V440.9h-1.9V425.54Z"/><path class="cls-4" d="M741,440.9l-0.15-1.32h-0.07a3.9,3.9,0,0,1-3.2,1.56,3,3,0,0,1-3.2-3c0-2.53,2.25-3.92,6.29-3.89V434a2.16,2.16,0,0,0-2.38-2.42,5.22,5.22,0,0,0-2.72.78l-0.43-1.25a6.51,6.51,0,0,1,3.44-.93c3.2,0,4,2.18,4,4.28v3.92a14.69,14.69,0,0,0,.17,2.51H741Zm-0.28-5.34c-2.08,0-4.43.32-4.43,2.36a1.69,1.69,0,0,0,1.8,1.82,2.61,2.61,0,0,0,2.53-1.75,2,2,0,0,0,.11-0.61v-1.82Z"/><path class="cls-4" d="M745.67,433.69c0-1.23,0-2.29-.09-3.27h1.66l0.07,2.06h0.09a3.14,3.14,0,0,1,2.9-2.29,2,2,0,0,1,.54.07v1.79a2.82,2.82,0,0,0-.65-0.07,2.67,2.67,0,0,0-2.55,2.44,5.45,5.45,0,0,0-.09.89v5.58h-1.88v-7.2Z"/><path class="cls-4" d="M764.8,440.51a7,7,0,0,1-3,.61,5,5,0,0,1-5.21-5.34,5.32,5.32,0,0,1,5.62-5.56,6.36,6.36,0,0,1,2.64.54l-0.43,1.47a4.42,4.42,0,0,0-2.21-.5c-2.4,0-3.7,1.77-3.7,4a3.59,3.59,0,0,0,3.63,3.92,5.41,5.41,0,0,0,2.34-.52Z"/><path class="cls-4" d="M767,425.54h1.9V440.9H767V425.54Z"/><path class="cls-4" d="M781.61,435.58c0,3.87-2.68,5.56-5.21,5.56-2.83,0-5-2.08-5-5.39,0-3.5,2.29-5.56,5.19-5.56S781.61,432.38,781.61,435.58Zm-8.31.11c0,2.29,1.32,4,3.18,4s3.18-1.71,3.18-4.07c0-1.77-.89-4-3.14-4S773.3,433.69,773.3,435.68Z"/><path class="cls-4" d="M786.31,427.42v3H789v1.45h-2.72v5.64c0,1.3.37,2,1.43,2a4.21,4.21,0,0,0,1.1-.13l0.09,1.43a4.66,4.66,0,0,1-1.69.26,2.64,2.64,0,0,1-2.06-.8,3.88,3.88,0,0,1-.74-2.72v-5.71h-1.62v-1.45h1.62v-2.51Z"/><path class="cls-4" d="M791.18,425.54h1.9v6.53h0a3.53,3.53,0,0,1,1.36-1.34,3.92,3.92,0,0,1,1.95-.54c1.41,0,3.66.86,3.66,4.48v6.23h-1.9v-6c0-1.69-.63-3.12-2.42-3.12a2.74,2.74,0,0,0-2.55,1.9,2.32,2.32,0,0,0-.13.91v6.32h-1.9V425.54Z"/><path class="cls-4" d="M807.52,439a5,5,0,0,0,2.51.76c1.38,0,2-.69,2-1.56s-0.54-1.41-1.95-1.92c-1.88-.67-2.77-1.71-2.77-3,0-1.69,1.36-3.07,3.61-3.07a5.24,5.24,0,0,1,2.57.65l-0.48,1.38a4.08,4.08,0,0,0-2.14-.61,1.53,1.53,0,0,0-1.75,1.43c0,0.86.63,1.25,2,1.77,1.82,0.69,2.75,1.6,2.75,3.16,0,1.84-1.43,3.14-3.92,3.14a6,6,0,0,1-2.94-.71Z"/><path class="cls-4" d="M816.35,433.26c0-1.08,0-2-.09-2.83h1.66l0.09,1.69h0.07a3.61,3.61,0,0,1,3.29-1.92,3.09,3.09,0,0,1,3,2.1h0a4.33,4.33,0,0,1,1.17-1.36,3.57,3.57,0,0,1,2.31-.73c1.38,0,3.44.91,3.44,4.54v6.16h-1.86V435c0-2-.74-3.22-2.27-3.22a2.46,2.46,0,0,0-2.25,1.73,3.13,3.13,0,0,0-.15,1v6.47H822.9v-6.27c0-1.66-.74-2.88-2.18-2.88a2.6,2.6,0,0,0-2.36,1.9,2.64,2.64,0,0,0-.15.93v6.32h-1.86v-7.63Z"/><path class="cls-4" d="M835.46,436a3.35,3.35,0,0,0,3.59,3.64,6.88,6.88,0,0,0,2.9-.54l0.32,1.36a8.47,8.47,0,0,1-3.48.65c-3.22,0-5.15-2.12-5.15-5.28s1.86-5.64,4.91-5.64c3.42,0,4.33,3,4.33,4.93a7.23,7.23,0,0,1-.07.89h-7.35Zm5.58-1.36c0-1.21-.5-3.09-2.64-3.09-1.92,0-2.77,1.78-2.92,3.09H841Z"/><path class="cls-4" d="M851,440.9l-0.15-1.32h-0.07a3.89,3.89,0,0,1-3.2,1.56,3,3,0,0,1-3.2-3c0-2.53,2.25-3.92,6.29-3.89V434a2.16,2.16,0,0,0-2.38-2.42,5.21,5.21,0,0,0-2.72.78l-0.43-1.25a6.5,6.5,0,0,1,3.44-.93c3.2,0,4,2.18,4,4.28v3.92a14.68,14.68,0,0,0,.17,2.51H851Zm-0.28-5.34c-2.08,0-4.43.32-4.43,2.36a1.69,1.69,0,0,0,1.79,1.82,2.6,2.6,0,0,0,2.53-1.75,2,2,0,0,0,.11-0.61v-1.82Z"/><path class="cls-4" d="M855.67,433.69c0-1.23,0-2.29-.09-3.27h1.66l0.07,2.06h0.09a3.14,3.14,0,0,1,2.9-2.29,2,2,0,0,1,.54.07v1.79a2.82,2.82,0,0,0-.65-0.07,2.67,2.67,0,0,0-2.55,2.44,5.45,5.45,0,0,0-.09.89v5.58h-1.88v-7.2Z"/><path class="cls-4" d="M862.49,439a5,5,0,0,0,2.51.76c1.38,0,2-.69,2-1.56s-0.54-1.41-1.95-1.92c-1.88-.67-2.77-1.71-2.77-3,0-1.69,1.36-3.07,3.61-3.07a5.24,5.24,0,0,1,2.57.65L868,432.22a4.08,4.08,0,0,0-2.14-.61,1.53,1.53,0,0,0-1.75,1.43c0,0.86.63,1.25,2,1.77,1.82,0.69,2.75,1.6,2.75,3.16,0,1.84-1.43,3.14-3.92,3.14a6,6,0,0,1-2.94-.71Z"/><path class="cls-4" d="M712.45,451.51v12.65c0,0.93,0,2,.09,2.7h-1.71l-0.09-1.82h0a3.87,3.87,0,0,1-3.57,2.06c-2.53,0-4.48-2.14-4.48-5.32,0-3.48,2.14-5.62,4.69-5.62a3.5,3.5,0,0,1,3.16,1.6h0v-6.25h1.9Zm-1.9,9.15a3.34,3.34,0,0,0-.09-0.8,2.8,2.8,0,0,0-2.75-2.21c-2,0-3.14,1.73-3.14,4,0,2.12,1,3.87,3.09,3.87a2.86,2.86,0,0,0,2.79-2.27,3.3,3.3,0,0,0,.09-0.82v-1.82Z"/><path class="cls-4" d="M717.73,453.46a1.18,1.18,0,0,1-2.36,0,1.16,1.16,0,0,1,1.19-1.19A1.13,1.13,0,0,1,717.73,453.46Zm-2.12,13.41V456.4h1.9v10.47h-1.9Z"/><path class="cls-4" d="M720.68,459.66c0-1.23,0-2.29-.09-3.27h1.66l0.07,2.06h0.09a3.14,3.14,0,0,1,2.9-2.29,2,2,0,0,1,.54.07V458a2.82,2.82,0,0,0-.65-0.07,2.67,2.67,0,0,0-2.55,2.44,5.45,5.45,0,0,0-.09.89v5.58h-1.88v-7.2Z"/><path class="cls-4" d="M730.56,453.39v3h2.72v1.45h-2.72v5.64c0,1.3.37,2,1.43,2a4.21,4.21,0,0,0,1.1-.13l0.09,1.43a4.66,4.66,0,0,1-1.69.26,2.64,2.64,0,0,1-2.06-.8,3.88,3.88,0,0,1-.74-2.72v-5.71h-1.62V456.4h1.62v-2.51Z"/><path class="cls-4" d="M745.82,466.87l-0.15-1.32H745.6a3.89,3.89,0,0,1-3.2,1.56,3,3,0,0,1-3.2-3c0-2.53,2.25-3.92,6.29-3.89V460a2.16,2.16,0,0,0-2.38-2.42,5.21,5.21,0,0,0-2.72.78L740,457.09a6.5,6.5,0,0,1,3.44-.93c3.2,0,4,2.18,4,4.28v3.92a14.68,14.68,0,0,0,.17,2.51h-1.73Zm-0.28-5.34c-2.08,0-4.43.32-4.43,2.36a1.69,1.69,0,0,0,1.79,1.82,2.6,2.6,0,0,0,2.53-1.75,2,2,0,0,0,.11-0.61v-1.82Z"/><path class="cls-4" d="M750.45,459.23c0-1.08,0-2-.09-2.83h1.69l0.11,1.73h0a3.85,3.85,0,0,1,3.46-2c1.45,0,3.7.86,3.7,4.46v6.25h-1.9v-6c0-1.69-.63-3.09-2.42-3.09a2.7,2.7,0,0,0-2.55,1.95,2.74,2.74,0,0,0-.13.89v6.29h-1.9v-7.63Z"/><path class="cls-4" d="M771.5,451.51v12.65c0,0.93,0,2,.09,2.7h-1.71l-0.09-1.82h0a3.87,3.87,0,0,1-3.57,2.06c-2.53,0-4.48-2.14-4.48-5.32,0-3.48,2.14-5.62,4.69-5.62a3.5,3.5,0,0,1,3.16,1.6h0v-6.25h1.9Zm-1.9,9.15a3.34,3.34,0,0,0-.09-0.8,2.8,2.8,0,0,0-2.75-2.21c-2,0-3.14,1.73-3.14,4,0,2.12,1,3.87,3.09,3.87a2.86,2.86,0,0,0,2.79-2.27,3.3,3.3,0,0,0,.09-0.82v-1.82Z"/><path class="cls-4" d="M779.26,459.82c0-1.34,0-2.42-.09-3.42h1.71l0.09,1.79h0a4.12,4.12,0,0,1,3.72-2c2.53,0,4.43,2.14,4.43,5.32,0,3.76-2.29,5.62-4.76,5.62a3.67,3.67,0,0,1-3.22-1.64h0v5.69h-1.88V459.82Zm1.88,2.79a4.38,4.38,0,0,0,.09.78,2.94,2.94,0,0,0,2.85,2.23c2,0,3.18-1.64,3.18-4,0-2.1-1.1-3.89-3.12-3.89a3,3,0,0,0-2.88,2.36,3.08,3.08,0,0,0-.13.78v1.8Z"/><path class="cls-4" d="M797.37,466.87l-0.15-1.32h-0.07a3.89,3.89,0,0,1-3.2,1.56,3,3,0,0,1-3.2-3c0-2.53,2.25-3.92,6.29-3.89V460a2.16,2.16,0,0,0-2.38-2.42,5.21,5.21,0,0,0-2.72.78l-0.43-1.25a6.5,6.5,0,0,1,3.44-.93c3.2,0,4,2.18,4,4.28v3.92a14.68,14.68,0,0,0,.17,2.51h-1.73Zm-0.28-5.34c-2.08,0-4.43.32-4.43,2.36a1.69,1.69,0,0,0,1.79,1.82,2.6,2.6,0,0,0,2.53-1.75,2,2,0,0,0,.11-0.61v-1.82Z"/><path class="cls-4" d="M802,459.66c0-1.23,0-2.29-.09-3.27h1.66l0.07,2.06h0.09a3.14,3.14,0,0,1,2.9-2.29,2,2,0,0,1,.54.07V458a2.82,2.82,0,0,0-.65-0.07A2.67,2.67,0,0,0,804,460.4a5.45,5.45,0,0,0-.09.89v5.58H802v-7.2Z"/><path class="cls-4" d="M811.89,453.39v3h2.73v1.45h-2.73v5.64c0,1.3.37,2,1.43,2a4.22,4.22,0,0,0,1.1-.13l0.09,1.43a4.65,4.65,0,0,1-1.69.26,2.64,2.64,0,0,1-2.06-.8,3.88,3.88,0,0,1-.73-2.72v-5.71h-1.62V456.4H810v-2.51Z"/><path class="cls-4" d="M818.88,453.46a1.18,1.18,0,0,1-2.36,0,1.16,1.16,0,0,1,1.19-1.19A1.13,1.13,0,0,1,818.88,453.46Zm-2.12,13.41V456.4h1.9v10.47h-1.9Z"/><path class="cls-4" d="M829.29,466.48a7,7,0,0,1-3,.61,5,5,0,0,1-5.21-5.34,5.32,5.32,0,0,1,5.62-5.56,6.36,6.36,0,0,1,2.64.54l-0.43,1.47a4.42,4.42,0,0,0-2.21-.5c-2.4,0-3.7,1.77-3.7,4a3.59,3.59,0,0,0,3.63,3.92,5.41,5.41,0,0,0,2.34-.52Z"/><path class="cls-4" d="M831.52,451.51h1.9v15.36h-1.9V451.51Z"/><path class="cls-4" d="M837.69,462a3.35,3.35,0,0,0,3.59,3.64,6.88,6.88,0,0,0,2.9-.54l0.32,1.36a8.47,8.47,0,0,1-3.48.65c-3.22,0-5.15-2.12-5.15-5.28s1.86-5.64,4.91-5.64c3.42,0,4.33,3,4.33,4.93a7.23,7.23,0,0,1-.07.89h-7.35Zm5.58-1.36c0-1.21-.5-3.09-2.64-3.09-1.92,0-2.77,1.78-2.92,3.09h5.56Z"/><path class="cls-4" d="M847.21,464.92a5,5,0,0,0,2.51.76c1.38,0,2-.69,2-1.56s-0.54-1.41-1.95-1.92c-1.88-.67-2.77-1.71-2.77-3,0-1.69,1.36-3.07,3.61-3.07a5.24,5.24,0,0,1,2.57.65l-0.48,1.38a4.08,4.08,0,0,0-2.14-.61,1.53,1.53,0,0,0-1.75,1.43c0,0.86.63,1.25,2,1.77,1.82,0.69,2.75,1.6,2.75,3.16,0,1.84-1.43,3.14-3.92,3.14a6,6,0,0,1-2.94-.71Z"/><circle class="cls-3" cx="285.87" cy="279.02" r="3.6"/><circle class="cls-3" cx="289.47" cy="291.25" r="3.6"/><circle class="cls-3" cx="299.5" cy="297.92" r="3.6"/><circle class="cls-3" cx="303.11" cy="301.52" r="3.6"/><circle class="cls-3" cx="309.13" cy="311.56" r="3.6"/><circle class="cls-3" cx="266.65" cy="312.85" r="3.6"/><circle class="cls-3" cx="305.52" cy="319.23" r="3.6"/><circle class="cls-3" cx="319.39" cy="319.23" r="3.6"/><circle class="cls-3" cx="327.15" cy="350.38" r="3.6"/><circle class="cls-3" cx="267.73" cy="355.48" r="3.6"/><circle class="cls-3" cx="334.36" cy="355.94" r="3.6"/><circle class="cls-3" cx="376.72" cy="312.85" r="3.6"/><circle class="cls-3" cx="363.22" cy="326.65" r="3.6"/><circle class="cls-3" cx="316.34" cy="328.73" r="3.6"/><circle class="cls-3" cx="323.55" cy="328.96" r="3.6"/><circle class="cls-3" cx="312.73" cy="332.56" r="3.6"/><circle class="cls-3" cx="326.09" cy="336.17" r="3.6"/><circle class="cls-3" cx="332.38" cy="337.34" r="3.6"/><circle class="cls-3" cx="319.94" cy="339.77" r="3.6"/><circle class="cls-3" cx="319.94" cy="346.78" r="3.6"/><circle class="cls-3" cx="333.98" cy="346.78" r="3.6"/><circle class="cls-3" cx="342.63" cy="350.38" r="3.6"/><circle class="cls-3" cx="387.8" cy="357.82" r="3.6"/><circle class="cls-3" cx="206.95" cy="323.04" r="3.6"/><circle class="cls-3" cx="376.72" cy="356.17" r="3.6"/><circle class="cls-3" cx="357" cy="359.78" r="3.6"/><circle class="cls-3" cx="369.04" cy="343.38" r="3.6"/><circle class="cls-3" cx="361.08" cy="356.17" r="3.6"/><circle class="cls-3" cx="391.54" cy="317.68" r="3.6"/><circle class="cls-3" cx="334.36" cy="352.34" r="3.6"/><circle class="cls-3" cx="326.09" cy="359.55" r="3.6"/><circle class="cls-3" cx="306.71" cy="372.47" r="3.6"/><circle class="cls-3" cx="341.72" cy="360.82" r="3.6"/><circle class="cls-3" cx="333.35" cy="368.64" r="3.6"/><circle class="cls-3" cx="345.54" cy="369.01" r="3.6"/><circle class="cls-3" cx="323.63" cy="370.82" r="3.6"/><circle class="cls-3" cx="317.57" cy="376.08" r="3.6"/><circle class="cls-3" cx="352.23" cy="350.61" r="3.6"/><circle class="cls-3" cx="319.94" cy="365.03" r="3.6"/><circle class="cls-3" cx="312.73" cy="365.03" r="3.6"/><circle class="cls-3" cx="271.33" cy="355.48" r="3.6"/><circle class="cls-3" cx="299.5" cy="309.24" r="3.6"/><circle class="cls-3" cx="319.39" cy="275.41" r="3.6"/><circle class="cls-3" cx="295.74" cy="262.04" r="3.6" transform="translate(-79.93 139.56) rotate(-23.48)"/><circle class="cls-3" cx="303.92" cy="271.82" r="3.6" transform="translate(-83.15 143.63) rotate(-23.48)"/><circle class="cls-3" cx="315.78" cy="273.94" r="3.6" transform="translate(-83.01 148.53) rotate(-23.48)"/><circle class="cls-3" cx="320.52" cy="275.81" r="3.6" transform="translate(-83.36 150.57) rotate(-23.48)"/><circle class="cls-3" cx="330.04" cy="282.61" r="3.6" transform="translate(-85.28 154.93) rotate(-23.48)"/><circle class="cls-3" cx="329.79" cy="291.09" r="3.6" transform="translate(-88.68 155.53) rotate(-23.48)"/><circle class="cls-3" cx="342.5" cy="285.56" r="3.6" transform="translate(-85.43 160.14) rotate(-23.48)"/><circle class="cls-3" cx="362.04" cy="311.04" r="3.6" transform="translate(-93.96 170.04) rotate(-23.48)"/><circle class="cls-3" cx="370.87" cy="313.27" r="3.6" transform="translate(-94.12 173.74) rotate(-23.48)"/><circle class="cls-3" cx="378.57" cy="330.98" r="3.6" transform="translate(-100.54 178.28) rotate(-23.48)"/><circle class="cls-3" cx="364.27" cy="267.74" r="3.6" transform="translate(-76.52 167.34) rotate(-23.48)"/><circle class="cls-3" cx="343.49" cy="295.49" r="3.6" transform="translate(-89.3 161.36) rotate(-23.48)"/><circle class="cls-3" cx="350.2" cy="292.83" r="3.6" transform="translate(-87.68 163.81) rotate(-23.48)"/><circle class="cls-3" cx="341.72" cy="300.44" r="3.6" transform="translate(-91.42 161.06) rotate(-23.48)"/><circle class="cls-3" cx="355.41" cy="298.42" r="3.6" transform="translate(-89.48 166.35) rotate(-23.48)"/><circle class="cls-3" cx="351.2" cy="304.18" r="3.6" transform="translate(-92.13 165.15) rotate(-23.48)"/><circle class="cls-3" cx="353.99" cy="310.61" r="3.6" transform="translate(-94.45 166.79) rotate(-23.48)"/><circle class="cls-3" cx="366.87" cy="305.01" r="3.6" transform="translate(-91.16 171.46) rotate(-23.48)"/><circle class="cls-3" cx="376.24" cy="304.87" r="3.6" transform="translate(-90.33 175.18) rotate(-23.48)"/><circle class="cls-3" cx="387.12" cy="305.64" r="3.6" transform="translate(-89.73 179.58) rotate(-23.48)"/><circle class="cls-3" cx="383.27" cy="321.06" r="3.6" transform="translate(-96.19 179.33) rotate(-23.48)"/><circle class="cls-3" cx="348.63" cy="246.96" r="3.6" transform="translate(-69.53 159.38) rotate(-23.48)"/><circle class="cls-3" cx="384.74" cy="268.87" r="3.6" transform="translate(-75.28 175.59) rotate(-23.48)"/><circle class="cls-3" cx="364.27" cy="340.23" r="3.6" transform="translate(-105.41 173.34) rotate(-23.48)"/><circle class="cls-3" cx="358.11" cy="345.94" r="3.6" transform="translate(-108.19 171.36) rotate(-23.48)"/><circle class="cls-3" cx="389.56" cy="329.62" r="3.6" transform="translate(-99.08 182.54) rotate(-23.48)"/><circle class="cls-3" cx="376.72" cy="250.4" r="3.6" transform="translate(-68.58 170.86) rotate(-23.48)"/><circle class="cls-3" cx="384.74" cy="344.07" r="0.01" transform="translate(-105.24 181.82) rotate(-23.48)"/><circle class="cls-3" cx="376.72" cy="344.07" r="3.6" transform="translate(-105.91 178.62) rotate(-23.48)"/><circle class="cls-3" cx="367.32" cy="297.18" r="3.6" transform="translate(-88 170.99) rotate(-23.48)"/><circle class="cls-3" cx="369.44" cy="309.96" r="3.6" transform="translate(-92.92 172.89) rotate(-23.48)"/><circle class="cls-3" cx="368.82" cy="326.65" r="3.6" transform="translate(-99.62 174.03) rotate(-23.48)"/><circle class="cls-3" cx="271.94" cy="342.11" r="3.6" transform="translate(-113.8 136.71) rotate(-23.48)"/><circle class="cls-3" cx="364.72" cy="319.87" r="3.6" transform="translate(-97.26 171.84) rotate(-23.48)"/><circle class="cls-3" cx="320.29" cy="284.33" r="3.6" transform="translate(-86.77 151.19) rotate(-23.48)"/><circle class="cls-3" cx="272.85" cy="271.1" r="3.6" transform="translate(-95.03 383.37) rotate(-61.79)"/><circle class="cls-3" cx="270.25" cy="283.58" r="3.6" transform="translate(-107.41 387.66) rotate(-61.79)"/><circle class="cls-3" cx="275.94" cy="294.2" r="3.6" transform="translate(-113.76 398.27) rotate(-61.79)"/><circle class="cls-3" cx="277.41" cy="299.08" r="3.6" transform="translate(-117.28 402.14) rotate(-61.79)"/><circle class="cls-3" cx="252.22" cy="299.13" r="3.6" transform="translate(-130.61 379.97) rotate(-61.79)"/><circle class="cls-3" cx="277.97" cy="310.77" r="3.6" transform="translate(-127.29 408.8) rotate(-61.79)"/><circle class="cls-3" cx="271.17" cy="315.82" r="3.6" transform="translate(-135.33 405.47) rotate(-61.79)"/><circle class="cls-3" cx="283.38" cy="322.38" r="3.6" transform="translate(-134.67 419.69) rotate(-61.79)"/><circle class="cls-3" cx="248.45" cy="318.77" r="3.6" transform="translate(-149.9 387) rotate(-61.79)"/><circle class="cls-3" cx="275.5" cy="353.5" r="3.6" transform="translate(-166.25 429.15) rotate(-61.79)"/><circle class="cls-3" cx="279.22" cy="361.81" r="3.6" transform="translate(-171.61 436.81) rotate(-61.79)"/><circle class="cls-3" cx="276.2" cy="329.31" r="3.6" transform="translate(-144.56 417.02) rotate(-61.79)"/><circle class="cls-3" cx="282.45" cy="332.92" r="3.6" transform="translate(-144.45 424.42) rotate(-61.79)"/><circle class="cls-3" cx="271.22" cy="330.98" r="3.6" transform="translate(-148.66 413.5) rotate(-61.79)"/><circle class="cls-3" cx="281.28" cy="340.48" r="3.6" transform="translate(-151.72 427.38) rotate(-61.79)"/><circle class="cls-3" cx="274.16" cy="340.75" r="3.6" transform="translate(-155.71 421.24) rotate(-61.79)"/><circle class="cls-3" cx="244.22" cy="326.65" r="3.6" transform="translate(-159.07 387.43) rotate(-61.79)"/><circle class="cls-3" cx="239.48" cy="336.4" r="3.6" transform="translate(-170.17 388.39) rotate(-61.79)"/><circle class="cls-3" cx="242.92" cy="348.75" r="3.6" transform="translate(-179.24 397.94) rotate(-61.79)"/><circle class="cls-3" cx="166.78" cy="291.09" r="3.6" transform="translate(-168.57 300.44) rotate(-61.79)"/><circle class="cls-3" cx="190.21" cy="335.7" r="3.6" transform="translate(-195.53 344.61) rotate(-61.79)"/><circle class="cls-3" cx="215.45" cy="299.13" r="3.6" transform="translate(-149.99 347.57) rotate(-61.79)"/><circle class="cls-3" cx="270.85" cy="346.92" r="3.6" transform="translate(-162.9 421.58) rotate(-61.79)"/><circle class="cls-3" cx="157.26" cy="296.38" r="3.6" transform="translate(-178.25 294.84) rotate(-61.79)"/><circle class="cls-3" cx="283.22" cy="353.55" r="3.6" transform="translate(-162.22 435.98) rotate(-61.79)"/><circle class="cls-3" cx="289.14" cy="360.82" r="3.6" transform="translate(-165.51 445.03) rotate(-61.79)"/><circle class="cls-3" cx="291.5" cy="368.4" r="3.6" transform="translate(-170.94 451.1) rotate(-61.79)"/><circle class="cls-3" cx="277.42" cy="370.82" r="3.6" transform="translate(-180.5 439.97) rotate(-61.79)"/><circle class="cls-3" cx="293.08" cy="378.16" r="3.6" transform="translate(-178.71 457.64) rotate(-61.79)"/><circle class="cls-3" cx="299.93" cy="370.77" r="3.6" transform="translate(-168.58 459.78) rotate(-61.79)"/><circle class="cls-3" cx="277.97" cy="380.37" r="3.6" transform="translate(-188.62 445.49) rotate(-61.79)"/><circle class="cls-3" cx="266.51" cy="377.88" r="3.6" transform="translate(-192.47 434.08) rotate(-61.79)"/><circle class="cls-3" cx="289.79" cy="371.58" r="3.6" transform="translate(-174.64 451.28) rotate(-61.79)"/><circle class="cls-3" cx="263.33" cy="376.17" r="3.6" transform="translate(-192.64 430.39) rotate(-61.79)"/><circle class="cls-3" cx="254.33" cy="376.54" r="3.6" transform="translate(-197.71 422.64) rotate(-61.79)"/><circle class="cls-3" cx="247.37" cy="370.86" r="3.6" transform="translate(-196.37 413.51) rotate(-61.79)"/><circle class="cls-3" cx="238.5" cy="375.59" r="3.6" transform="translate(-205.22 408.19) rotate(-61.79)"/><circle class="cls-3" cx="231.55" cy="337.64" r="3.6" transform="translate(-175.44 382.06) rotate(-61.79)"/><circle class="cls-3" cx="277.42" cy="370.82" r="3.6" transform="translate(-180.5 439.97) rotate(-61.79)"/><circle class="cls-3" cx="203.4" cy="368.4" r="3.6" transform="translate(-217.39 373.47) rotate(-61.79)"/><circle class="cls-3" cx="228.38" cy="335.94" r="3.6" transform="translate(-175.62 378.37) rotate(-61.79)"/><circle class="cls-3" cx="233.33" cy="351.88" r="3.6" transform="translate(-187.05 391.14) rotate(-61.79)"/><circle class="cls-3" cx="213.67" cy="371.58" r="3.6" transform="translate(-214.77 384.2) rotate(-61.79)"/><circle class="cls-3" cx="217.19" cy="359.78" r="3.6" transform="translate(-202.52 381.08) rotate(-61.79)"/><circle class="cls-3" cx="227.73" cy="367.92" r="3.6" transform="translate(-204.14 394.66) rotate(-61.79)"/><circle class="cls-3" cx="221.75" cy="344.07" r="3.6" transform="translate(-186.27 376.82) rotate(-61.79)"/><circle class="cls-3" cx="280.93" cy="358.64" r="3.6" transform="translate(-167.91 436.64) rotate(-61.79)"/><circle class="cls-3" cx="228.38" cy="356.17" r="3.6" transform="translate(-193.45 389.04) rotate(-61.79)"/><circle class="cls-3" cx="270.23" cy="361.08" r="3.6" transform="translate(-175.7 428.5) rotate(-61.79)"/><circle class="cls-3" cx="270.58" cy="304.18" r="3.6" transform="translate(-125.38 398.81) rotate(-61.79)"/><circle class="cls-3" cx="304.1" cy="283.77" r="3.6" transform="translate(-89.72 417.58) rotate(-61.79)"/><circle class="cls-3" cx="292.16" cy="273.29" r="3.6" transform="translate(-4.28 541.93) rotate(-85.27)"/><circle class="cls-3" cx="301.61" cy="280.76" r="3.6" transform="translate(-3.06 558.2) rotate(-85.27)"/><circle class="cls-3" cx="304.91" cy="284.65" r="3.6" transform="translate(-3.91 565.06) rotate(-85.27)"/><circle class="cls-3" cx="310.08" cy="295.15" r="3.6" transform="translate(-9.63 579.84) rotate(-85.27)"/><circle class="cls-3" cx="305.85" cy="302.5" r="3.6" transform="translate(-20.83 582.37) rotate(-85.27)"/><circle class="cls-3" cx="319.67" cy="303.64" r="3.6" transform="translate(-9.29 597.19) rotate(-85.27)"/><circle class="cls-3" cx="315.85" cy="312.86" r="3.6" transform="translate(-21.98 601.84) rotate(-85.27)"/><circle class="cls-3" cx="311.94" cy="316.38" r="3.6" transform="translate(-29.08 601.18) rotate(-85.27)"/><circle class="cls-3" cx="300.68" cy="292.05" r="3.6" transform="translate(-15.17 567.63) rotate(-85.27)"/><circle class="cls-3" cx="313.53" cy="253.46" r="3.6" transform="translate(-75.03 145.94) rotate(-23.48)"/><circle class="cls-3" cx="215.45" cy="271.1" r="3.6" transform="matrix(0.92, -0.4, 0.4, 0.92, -90.19, 108.31)"/><circle class="cls-3" cx="215.45" cy="245.67" r="3.6" transform="translate(-80.05 106.21) rotate(-23.48)"/><circle class="cls-3" cx="233.44" cy="228.02" r="3.6" transform="translate(-71.53 111.91) rotate(-23.48)"/><circle class="cls-3" cx="268.85" cy="246.96" r="8.19"/><g class="cls-5"><path class="cls-3" d="M275.53,246.29l118-27.07,2.83,28.09H275.68Z"/><path class="cls-3" d="M260.9,249.43L141.11,275.16l-2.49-27.49H260.68Z"/><path class="cls-3" d="M260.73,246.19q-20.52-5.19-41-10.38c-23.9-6-47.77-12.19-71.75-17.91-4.15-1-5.29-2.43-3.92-6.14,2.61-7.07,5.29-14.12,8.12-21.66l109,55Z"/><path class="cls-3" d="M393.06,278.31l-9.49,26L273.39,250.7l0.31-.94Z"/><path class="cls-3" d="M264,252c-6.3,4.45-12.77,8.67-18.87,13.39-24.54,19-49,38.15-73.44,57.23-1.44,1.12-3,2.16-5.33,3.88l-15-22.68c28.85-13.84,56.79-27.23,84.72-40.64,7.41-3.56,14.73-7.29,22.23-10.65,1.73-.78,4-0.32,6-0.43Z"/><path class="cls-3" d="M367.59,167.93l15.33,22.72-107.4,53.12-0.85-1.21Z"/><path class="cls-3" d="M271.38,253.74c1.61,0.52,3.57.61,4.79,1.61,23.26,18.9,46.42,37.93,69.65,56.88,6.64,5.42,13.42,10.65,20.25,16.06l-18.38,20.13c-6.65-8.28-12.27-15.2-17.82-22.17Q302.45,291.78,275,257.3a39.93,39.93,0,0,0-3.86-3.73Z"/><path class="cls-3" d="M264,252l0.39,0.08c-2.9,6.47-5.58,13.06-8.75,19.4q-21.46,43-43.16,85.92c-0.53,1.06-1.22,2-2.25,3.75l-22.42-13.72Z"/><path class="cls-3" d="M169.41,165.81l19.77-18.47,74.22,95.44-0.69.8Z"/><path class="cls-3" d="M322.94,133.93l23,13.65-74,94.83-1.12-.66Z"/><path class="cls-3" d="M271.18,253.57c4.24,9.7,8.28,19.5,12.77,29.08,12.34,26.39,24.86,52.68,37.78,80l-25.46,7.85L268.55,251.26l2.82,2.47Z"/><path class="cls-3" d="M214.7,132.46l25.63-7.16,25.57,116.77-0.89.36Z"/><path class="cls-3" d="M268.09,245.34V123.53l26.83,1.77Z"/><path class="cls-3" d="M267,253.9V372.5l-24.81-3.25L266.43,254Z"/></g></svg>